<svg xmlns="http://www.w3.org/2000/svg" xmlns:xlink="http://www.w3.org/1999/xlink" width="463" height="351" viewBox="0 0 463 351">
  <defs>
    <filter id="Path_14616" x="2.219" y="6.166" width="461.916" height="42.548" filterUnits="userSpaceOnUse">
      <feOffset dy="3" input="SourceAlpha"/>
      <feGaussianBlur stdDeviation="3" result="blur"/>
      <feFlood flood-opacity="0.161"/>
      <feComposite operator="in" in2="blur"/>
      <feComposite in="SourceGraphic"/>
    </filter>
    <clipPath id="clip-market_04b">
      <rect width="463" height="351"/>
    </clipPath>
  </defs>
  <g id="market_04b" clip-path="url(#clip-market_04b)">
    <path id="Path_14615" data-name="Path 14615" d="M0,0H443.916V326.289H0Z" transform="translate(11.218 12.165)" fill="#1f1f1f"/>
    <path id="Path_14620" data-name="Path 14620" d="M0,0H225.027V74.668H0Z" transform="translate(166.691 112.404)" fill="#333"/>
    <g transform="matrix(1, 0, 0, 1, 0, 0)" filter="url(#Path_14616)">
      <path id="Path_14616-2" data-name="Path 14616" d="M0,0H443.916V24.548H0Z" transform="translate(11.22 12.17)" fill="#2f2f2f"/>
    </g>
    <path id="Path_14643" data-name="Path 14643" d="M4.864.316A8.18,8.18,0,0,1,3.246.165a3.4,3.4,0,0,1-1.289-.53A2.44,2.44,0,0,1,1.12-1.41,4.272,4.272,0,0,1,.826-3.121v-7.2H2.587v7.2a1.949,1.949,0,0,0,.272,1.1,1.47,1.47,0,0,0,.78.58,3.844,3.844,0,0,0,1.224.172,3.844,3.844,0,0,0,1.224-.172,1.47,1.47,0,0,0,.78-.58,1.949,1.949,0,0,0,.272-1.1v-7.2H8.9v7.2A4.272,4.272,0,0,1,8.609-1.41,2.44,2.44,0,0,1,7.771-.365,3.4,3.4,0,0,1,6.49.165,8.15,8.15,0,0,1,4.864.316ZM13.857.33q-.387,0-.823-.021T12.146.237q-.451-.05-.852-.1T10.578.015V-1.374q.4.029.938.057t1.124.043q.587.014,1.131.014a4.344,4.344,0,0,0,1.017-.107,1.3,1.3,0,0,0,.687-.379,1.121,1.121,0,0,0,.243-.773v-.5A1.132,1.132,0,0,0,15.4-3.88a1.3,1.3,0,0,0-.931-.3h-.988a3.465,3.465,0,0,1-2.227-.63,2.633,2.633,0,0,1-.78-2.162v-.544A2.665,2.665,0,0,1,11.33-9.73a3.833,3.833,0,0,1,2.442-.68q.544,0,1.124.05t1.11.122q.53.072.9.158v1.389q-.63-.043-1.439-.086t-1.5-.043a3.621,3.621,0,0,0-.959.115,1.117,1.117,0,0,0-.63.408,1.459,1.459,0,0,0-.215.866v.344a1.105,1.105,0,0,0,.365.945,1.74,1.74,0,0,0,1.053.272h1.1a3.059,3.059,0,0,1,1.532.344,2.173,2.173,0,0,1,.895.938,3.016,3.016,0,0,1,.294,1.353v.673a3.034,3.034,0,0,1-.458,1.8A2.281,2.281,0,0,1,15.69.1,6.683,6.683,0,0,1,13.857.33ZM19.112.244V-10.324H23.48a3.678,3.678,0,0,1,1.726.365,2.785,2.785,0,0,1,1.11,1.06,4.984,4.984,0,0,1,.594,1.668,12.181,12.181,0,0,1,.179,2.191,9.073,9.073,0,0,1-.4,2.914,3.591,3.591,0,0,1-1.2,1.769,3.247,3.247,0,0,1-2,.6Zm1.761-1.59h2.434a1.592,1.592,0,0,0,1.167-.43,2.62,2.62,0,0,0,.644-1.26,8.373,8.373,0,0,0,.208-2,10.464,10.464,0,0,0-.129-1.8,3.484,3.484,0,0,0-.372-1.131,1.386,1.386,0,0,0-.623-.587,2.154,2.154,0,0,0-.895-.172H20.874Zm13.6,1.59L31.886-10.324h1.833l1.9,7.99,2.205-7.99H39.49l2.191,7.99,1.9-7.99h1.833L42.826.244H40.993l-2.334-8-2.348,8Zm12.4-8.893q-.272,0-.272-.258v-1.3q0-.286.272-.286h1.346a.226.226,0,0,1,.193.086.325.325,0,0,1,.064.2v1.3a.228.228,0,0,1-.258.258ZM46.65.244V-7.431h1.776V.244Zm6.387,0a3.191,3.191,0,0,1-1.36-.251,1.507,1.507,0,0,1-.766-.838,4.048,4.048,0,0,1-.222-1.547L50.745-6h-1.2V-7.145l1.26-.286.258-2.148h1.389v2.148H54.4V-6H52.449v3.594a2.146,2.146,0,0,0,.072.609.874.874,0,0,0,.208.372.8.8,0,0,0,.294.193,1.267,1.267,0,0,0,.329.072l.959.1v1.3Zm2.663,0V-10.668h1.776v4.038a5.478,5.478,0,0,1,1.153-.637,3.627,3.627,0,0,1,1.425-.294,2.45,2.45,0,0,1,1.368.344,1.954,1.954,0,0,1,.759.952,3.8,3.8,0,0,1,.236,1.382V.244H60.64V-4.668a1.449,1.449,0,0,0-.158-.695,1.048,1.048,0,0,0-.444-.444,1.428,1.428,0,0,0-.673-.15,2.831,2.831,0,0,0-.687.079,3.1,3.1,0,0,0-.609.222,6.77,6.77,0,0,0-.594.329V.244ZM66.7.33A2.762,2.762,0,0,1,65.18-.064a2.369,2.369,0,0,1-.924-1.246,6.63,6.63,0,0,1-.308-2.212,8.045,8.045,0,0,1,.272-2.313,2.244,2.244,0,0,1,.909-1.289,3.141,3.141,0,0,1,1.711-.408,5.615,5.615,0,0,1,1.131.115,6.381,6.381,0,0,1,.974.272v-3.537h1.776V.244H69.246l-.3-.745a2.49,2.49,0,0,1-.609.4,4.891,4.891,0,0,1-.8.308A3.015,3.015,0,0,1,66.7.33ZM67.3-1.1a2.506,2.506,0,0,0,.931-.165,5.652,5.652,0,0,0,.716-.337V-5.871Q68.588-6,68.215-6.1a3.134,3.134,0,0,0-.816-.1,1.885,1.885,0,0,0-.974.222,1.277,1.277,0,0,0-.537.78,5.915,5.915,0,0,0-.165,1.59A5.727,5.727,0,0,0,65.881-2.1a1.283,1.283,0,0,0,.508.773A1.677,1.677,0,0,0,67.3-1.1ZM72.5.244V-7.431h1.375l.4,1.232a4.987,4.987,0,0,1,1.017-.945,2.281,2.281,0,0,1,1.332-.387,2.658,2.658,0,0,1,.329.021,1.931,1.931,0,0,1,.315.064v1.8q-.2-.029-.43-.043T76.392-5.7a3.053,3.053,0,0,0-.809.1,2.367,2.367,0,0,0-.68.308,4.058,4.058,0,0,0-.63.523V.244ZM79.8.33a1.957,1.957,0,0,1-1.4-.516A1.859,1.859,0,0,1,77.853-1.6v-.644a1.873,1.873,0,0,1,.609-1.446,2.691,2.691,0,0,1,1.869-.558h2.191v-.673a1.433,1.433,0,0,0-.143-.673.9.9,0,0,0-.516-.408,3.513,3.513,0,0,0-1.131-.136h-2.32V-7.174a11.2,11.2,0,0,1,1.246-.251,11.672,11.672,0,0,1,1.7-.107,4.569,4.569,0,0,1,1.6.222,1.867,1.867,0,0,1,1,.78A2.821,2.821,0,0,1,84.3-5.04V.244H82.908l-.3-.831a2.377,2.377,0,0,1-.358.229,7,7,0,0,1-.644.308,5.1,5.1,0,0,1-.852.272A4.221,4.221,0,0,1,79.8.33Zm.859-1.246a2.059,2.059,0,0,0,.422-.05q.236-.05.48-.115t.451-.129q.208-.064.344-.122t.165-.072v-2l-1.661.086a1.528,1.528,0,0,0-.952.344,1.012,1.012,0,0,0-.294.759V-1.9a1.015,1.015,0,0,0,.15.58.783.783,0,0,0,.387.308A1.748,1.748,0,0,0,80.659-.916ZM87.5.244,85.371-7.431h1.819L88.636-1.4,90.3-7.431h1.489L93.447-1.4l1.36-6.029h1.819L94.521.244H92.559l-1.547-5.2-1.59,5.2ZM99.046.33a1.957,1.957,0,0,1-1.4-.516A1.859,1.859,0,0,1,97.1-1.6v-.644a1.873,1.873,0,0,1,.609-1.446,2.691,2.691,0,0,1,1.869-.558h2.191v-.673a1.433,1.433,0,0,0-.143-.673.9.9,0,0,0-.516-.408,3.513,3.513,0,0,0-1.131-.136h-2.32V-7.174A11.2,11.2,0,0,1,98.9-7.424a11.672,11.672,0,0,1,1.7-.107,4.569,4.569,0,0,1,1.6.222,1.867,1.867,0,0,1,1,.78,2.821,2.821,0,0,1,.337,1.489V.244h-1.389l-.3-.831a2.377,2.377,0,0,1-.358.229,7,7,0,0,1-.644.308A5.1,5.1,0,0,1,100,.223,4.221,4.221,0,0,1,99.046.33Zm.859-1.246a2.06,2.06,0,0,0,.422-.05q.236-.05.48-.115t.451-.129q.208-.064.344-.122t.165-.072v-2l-1.661.086a1.528,1.528,0,0,0-.952.344,1.012,1.012,0,0,0-.294.759V-1.9a1.015,1.015,0,0,0,.15.58.783.783,0,0,0,.387.308A1.748,1.748,0,0,0,99.905-.916ZM107.581.273a2.787,2.787,0,0,1-1.267-.258,1.635,1.635,0,0,1-.759-.8,3.5,3.5,0,0,1-.251-1.446v-8.449h1.776v8.205a2.368,2.368,0,0,0,.107.8.771.771,0,0,0,.308.408,1.3,1.3,0,0,0,.487.165l.644.086V.273Z" transform="translate(21.466 30.333)" fill="#fff"/>
    <path id="Path_14617" data-name="Path 14617" d="M-1.023-11.375H-12.658A1.343,1.343,0,0,0-14-10.033V-.188a1.343,1.343,0,0,0,1.342,1.342H-1.023A1.343,1.343,0,0,0,.32-.188v-9.845A1.343,1.343,0,0,0-1.023-11.375ZM-3.361-3.25a.344.344,0,0,1,0,.487L-4.493-1.631a.344.344,0,0,1-.487,0L-6.84-3.507-8.7-1.631a.344.344,0,0,1-.487,0l-1.133-1.133a.344.344,0,0,1,0-.487l1.877-1.86-1.877-1.86a.344.344,0,0,1,0-.487l1.133-1.133a.344.344,0,0,1,.487,0l1.86,1.877,1.86-1.877a.344.344,0,0,1,.487,0l1.133,1.133a.344.344,0,0,1,0,.487L-5.237-5.11Z" transform="translate(444.586 29.294)" fill="#fff"/>
    <path id="Path_14621" data-name="Path 14621" d="M0,0H225.027V22.5H0Z" transform="translate(166.691 79.673)"/>
    <path id="Path_14622" data-name="Path 14622" d="M0,0H225.027V22.5H0Z" transform="translate(166.691 46.942)"/>
    <path id="Path_14645" data-name="Path 14645" d="M3.249.175H2.4V-6.373H.088v-.754H5.562v.754H3.249ZM9.033-5.4a3.244,3.244,0,0,1,.654.06l-.115.769a2.824,2.824,0,0,0-.6-.075,1.459,1.459,0,0,0-1.136.539,1.967,1.967,0,0,0-.472,1.343V.175H6.536V-5.3H7.22l.095,1.014h.04a2.406,2.406,0,0,1,.734-.824A1.653,1.653,0,0,1,9.033-5.4ZM14.077.175,13.912-.6h-.04a2.3,2.3,0,0,1-.817.7,2.489,2.489,0,0,1-1.016.182,1.828,1.828,0,0,1-1.276-.42A1.53,1.53,0,0,1,10.3-1.338Q10.3-3,12.953-3.077l.929-.03v-.34a1.388,1.388,0,0,0-.277-.951,1.14,1.14,0,0,0-.887-.307,3.612,3.612,0,0,0-1.548.42l-.255-.634a3.9,3.9,0,0,1,.887-.345,3.839,3.839,0,0,1,.966-.125,2.085,2.085,0,0,1,1.451.435,1.814,1.814,0,0,1,.472,1.393V.175ZM12.2-.41A1.683,1.683,0,0,0,13.42-.834a1.57,1.57,0,0,0,.442-1.189v-.494l-.829.035a3.016,3.016,0,0,0-1.426.307.926.926,0,0,0-.437.847.854.854,0,0,0,.272.684A1.13,1.13,0,0,0,12.2-.41Zm7.941.584V-3.366a1.429,1.429,0,0,0-.3-1,1.241,1.241,0,0,0-.954-.33,1.573,1.573,0,0,0-1.259.464,2.345,2.345,0,0,0-.4,1.533V.175H16.4V-5.3h.674l.135.749h.04a1.693,1.693,0,0,1,.714-.627A2.32,2.32,0,0,1,18.987-5.4a2.079,2.079,0,0,1,1.488.477,2.03,2.03,0,0,1,.5,1.526V.175Zm6.063-1.493A1.371,1.371,0,0,1,25.639-.14a2.676,2.676,0,0,1-1.6.415,3.475,3.475,0,0,1-1.7-.345V-.839a4.107,4.107,0,0,0,.847.315,3.535,3.535,0,0,0,.872.115,1.976,1.976,0,0,0,1-.207.685.685,0,0,0,.35-.632.686.686,0,0,0-.277-.547,4.36,4.36,0,0,0-1.081-.537,5.863,5.863,0,0,1-1.086-.5,1.484,1.484,0,0,1-.479-.482,1.257,1.257,0,0,1-.157-.644,1.228,1.228,0,0,1,.544-1.056A2.537,2.537,0,0,1,24.366-5.4a4.369,4.369,0,0,1,1.728.36l-.295.674a3.967,3.967,0,0,0-1.493-.34,1.718,1.718,0,0,0-.889.185.571.571,0,0,0-.3.509.62.62,0,0,0,.112.375,1.109,1.109,0,0,0,.362.295,8.092,8.092,0,0,0,.959.4,3.582,3.582,0,0,1,1.316.714A1.259,1.259,0,0,1,26.208-1.318Zm3.816-3.336H28.631V.175H27.8v-4.83h-.979v-.375l.979-.3v-.3q0-2.018,1.763-2.018a3.628,3.628,0,0,1,1.019.175l-.215.664a2.743,2.743,0,0,0-.819-.155.8.8,0,0,0-.694.312,1.742,1.742,0,0,0-.225,1V-5.3h1.393ZM33.335.275A2.515,2.515,0,0,1,31.42-.464a2.862,2.862,0,0,1-.7-2.053,3.174,3.174,0,0,1,.652-2.1A2.165,2.165,0,0,1,33.121-5.4a2.064,2.064,0,0,1,1.628.677,2.594,2.594,0,0,1,.6,1.785v.524H31.577a2.17,2.17,0,0,0,.487,1.463,1.684,1.684,0,0,0,1.3.5,4.409,4.409,0,0,0,1.748-.37V-.08a4.387,4.387,0,0,1-.832.272A4.673,4.673,0,0,1,33.335.275ZM33.111-4.7a1.354,1.354,0,0,0-1.051.43A1.98,1.98,0,0,0,31.6-3.087h2.862a1.823,1.823,0,0,0-.35-1.2A1.231,1.231,0,0,0,33.111-4.7ZM39.259-5.4a3.244,3.244,0,0,1,.654.06L39.8-4.57a2.824,2.824,0,0,0-.6-.075,1.459,1.459,0,0,0-1.136.539,1.967,1.967,0,0,0-.472,1.343V.175h-.829V-5.3h.684l.095,1.014h.04a2.406,2.406,0,0,1,.734-.824A1.653,1.653,0,0,1,39.259-5.4ZM48.309.175,47.4-2.148H44.473l-.9,2.322h-.859L45.6-7.157h.714L49.188.175ZM47.135-2.912l-.849-2.262q-.165-.43-.34-1.054a9.463,9.463,0,0,1-.315,1.054l-.859,2.262ZM57.044.175V-3.386a1.478,1.478,0,0,0-.28-.981,1.082,1.082,0,0,0-.869-.327,1.4,1.4,0,0,0-1.144.444,2.112,2.112,0,0,0-.37,1.368V.175h-.829V-3.386a1.478,1.478,0,0,0-.28-.981,1.088,1.088,0,0,0-.874-.327,1.354,1.354,0,0,0-1.141.467A2.527,2.527,0,0,0,50.9-2.7V.175h-.829V-5.3h.674l.135.749h.04a1.629,1.629,0,0,1,.662-.624,2.022,2.022,0,0,1,.956-.225,1.626,1.626,0,0,1,1.678.929h.04a1.745,1.745,0,0,1,.709-.679A2.2,2.2,0,0,1,56.02-5.4a1.854,1.854,0,0,1,1.391.477A2.134,2.134,0,0,1,57.873-3.4V.175Zm7.262-2.742a3.02,3.02,0,0,1-.674,2.09,2.375,2.375,0,0,1-1.863.752,2.467,2.467,0,0,1-1.3-.345,2.274,2.274,0,0,1-.879-.989,3.446,3.446,0,0,1-.31-1.508,3.015,3.015,0,0,1,.669-2.085A2.367,2.367,0,0,1,61.8-5.4a2.316,2.316,0,0,1,1.825.764A3.007,3.007,0,0,1,64.306-2.567Zm-4.17,0a2.6,2.6,0,0,0,.42,1.6,1.456,1.456,0,0,0,1.234.549,1.466,1.466,0,0,0,1.236-.547,2.585,2.585,0,0,0,.422-1.6,2.543,2.543,0,0,0-.422-1.586,1.483,1.483,0,0,0-1.246-.542,1.459,1.459,0,0,0-1.229.534A2.572,2.572,0,0,0,60.135-2.567Zm6.4-2.732v3.551a1.429,1.429,0,0,0,.3,1,1.241,1.241,0,0,0,.954.33,1.556,1.556,0,0,0,1.256-.469,2.368,2.368,0,0,0,.4-1.533V-5.3h.829V.175h-.684l-.12-.734H69.43a1.653,1.653,0,0,1-.707.619,2.375,2.375,0,0,1-1.031.215A2.092,2.092,0,0,1,66.2-.2a2.02,2.02,0,0,1-.5-1.518V-5.3ZM75.783.175V-3.366a1.429,1.429,0,0,0-.3-1,1.241,1.241,0,0,0-.954-.33,1.573,1.573,0,0,0-1.259.464,2.345,2.345,0,0,0-.4,1.533V.175h-.829V-5.3h.674l.135.749h.04a1.693,1.693,0,0,1,.714-.627A2.32,2.32,0,0,1,74.624-5.4a2.079,2.079,0,0,1,1.488.477,2.03,2.03,0,0,1,.5,1.526V.175Zm4.3-.584a2.708,2.708,0,0,0,.425-.032,2.748,2.748,0,0,0,.325-.067V.125a1.516,1.516,0,0,1-.4.107,2.982,2.982,0,0,1-.472.042q-1.588,0-1.588-1.673V-4.655h-.784v-.4l.784-.345.35-1.169H79.2V-5.3h1.588v.644H79.2v3.221a1.108,1.108,0,0,0,.235.759A.817.817,0,0,0,80.083-.41Z" transform="translate(31.677 94.841)" fill="#999"/>
    <path id="Path_14644" data-name="Path 14644" d="M6.81-3.553A3.686,3.686,0,0,1,5.828-.789,3.883,3.883,0,0,1,3,.168H.981v-7.3H3.219a3.579,3.579,0,0,1,2.647.944A3.565,3.565,0,0,1,6.81-3.553Zm-.9.03a2.94,2.94,0,0,0-.717-2.153A2.872,2.872,0,0,0,3.064-6.4H1.83V-.566H2.864a3.143,3.143,0,0,0,2.282-.747A2.956,2.956,0,0,0,5.911-3.523ZM10.626.268A2.515,2.515,0,0,1,8.71-.472a2.862,2.862,0,0,1-.7-2.053,3.174,3.174,0,0,1,.652-2.1,2.165,2.165,0,0,1,1.751-.779,2.064,2.064,0,0,1,1.628.677,2.594,2.594,0,0,1,.6,1.785v.524H8.868A2.17,2.17,0,0,0,9.355-.956a1.684,1.684,0,0,0,1.3.5A4.409,4.409,0,0,0,12.4-.826v.739a4.387,4.387,0,0,1-.832.272A4.673,4.673,0,0,1,10.626.268ZM10.4-4.712a1.354,1.354,0,0,0-1.051.43,1.98,1.98,0,0,0-.462,1.189h2.862a1.823,1.823,0,0,0-.35-1.2A1.231,1.231,0,0,0,10.4-4.712Zm7.182,3.386a1.371,1.371,0,0,1-.569,1.179,2.676,2.676,0,0,1-1.6.415,3.475,3.475,0,0,1-1.7-.345V-.846a4.107,4.107,0,0,0,.847.315,3.535,3.535,0,0,0,.872.115,1.976,1.976,0,0,0,1-.207.685.685,0,0,0,.35-.632.686.686,0,0,0-.277-.547,4.36,4.36,0,0,0-1.081-.537,5.863,5.863,0,0,1-1.086-.5,1.484,1.484,0,0,1-.479-.482,1.257,1.257,0,0,1-.157-.644,1.228,1.228,0,0,1,.544-1.056,2.537,2.537,0,0,1,1.493-.387,4.369,4.369,0,0,1,1.728.36l-.295.674a3.967,3.967,0,0,0-1.493-.34,1.718,1.718,0,0,0-.889.185.571.571,0,0,0-.3.509.62.62,0,0,0,.112.375,1.109,1.109,0,0,0,.362.295,8.092,8.092,0,0,0,.959.4,3.582,3.582,0,0,1,1.316.714A1.259,1.259,0,0,1,17.583-1.326ZM20.7-.417a2.708,2.708,0,0,0,.425-.032,2.748,2.748,0,0,0,.325-.067V.118a1.516,1.516,0,0,1-.4.107,2.982,2.982,0,0,1-.472.042q-1.588,0-1.588-1.673V-4.662h-.784v-.4l.784-.345.35-1.169h.479v1.269h1.588v.644H19.82v3.221a1.108,1.108,0,0,0,.235.759A.817.817,0,0,0,20.7-.417Zm2.672.584h-.829V-5.306h.829Zm-.9-6.957a.551.551,0,0,1,.14-.417.489.489,0,0,1,.35-.132.488.488,0,0,1,.345.135.541.541,0,0,1,.145.415.549.549,0,0,1-.145.417.484.484,0,0,1-.345.137.479.479,0,0,1-.35-.137A.561.561,0,0,1,22.472-6.789Zm6.4,6.957V-3.373a1.429,1.429,0,0,0-.3-1,1.241,1.241,0,0,0-.954-.33,1.573,1.573,0,0,0-1.259.464,2.345,2.345,0,0,0-.4,1.533V.168h-.829V-5.306H25.8l.135.749h.04a1.693,1.693,0,0,1,.714-.627,2.32,2.32,0,0,1,1.024-.222,2.079,2.079,0,0,1,1.488.477A2.03,2.03,0,0,1,29.7-3.4V.168Zm5.9,0-.165-.779h-.04a2.3,2.3,0,0,1-.817.7,2.489,2.489,0,0,1-1.016.182,1.828,1.828,0,0,1-1.276-.42A1.53,1.53,0,0,1,31-1.346Q31-3,33.65-3.084l.929-.03v-.34A1.388,1.388,0,0,0,34.3-4.4a1.14,1.14,0,0,0-.887-.307,3.612,3.612,0,0,0-1.548.42l-.255-.634a3.9,3.9,0,0,1,.887-.345,3.839,3.839,0,0,1,.966-.125,2.085,2.085,0,0,1,1.451.435,1.814,1.814,0,0,1,.472,1.393V.168ZM32.9-.417a1.683,1.683,0,0,0,1.216-.425,1.57,1.57,0,0,0,.442-1.189v-.494l-.829.035a3.016,3.016,0,0,0-1.426.307.926.926,0,0,0-.437.847.854.854,0,0,0,.272.684A1.13,1.13,0,0,0,32.9-.417Zm5.963,0a2.708,2.708,0,0,0,.425-.032,2.748,2.748,0,0,0,.325-.067V.118a1.516,1.516,0,0,1-.4.107,2.982,2.982,0,0,1-.472.042q-1.588,0-1.588-1.673V-4.662h-.784v-.4l.784-.345.35-1.169h.479v1.269h1.588v.644H37.985v3.221a1.108,1.108,0,0,0,.235.759A.817.817,0,0,0,38.864-.417Zm2.672.584h-.829V-5.306h.829Zm-.9-6.957a.551.551,0,0,1,.14-.417.489.489,0,0,1,.35-.132.488.488,0,0,1,.345.135.541.541,0,0,1,.145.415.549.549,0,0,1-.145.417.484.484,0,0,1-.345.137.479.479,0,0,1-.35-.137A.561.561,0,0,1,40.637-6.789Zm7.382,4.215a3.02,3.02,0,0,1-.674,2.09,2.375,2.375,0,0,1-1.863.752,2.467,2.467,0,0,1-1.3-.345,2.274,2.274,0,0,1-.879-.989,3.446,3.446,0,0,1-.31-1.508,3.015,3.015,0,0,1,.669-2.085,2.367,2.367,0,0,1,1.858-.747,2.316,2.316,0,0,1,1.825.764A3.007,3.007,0,0,1,48.019-2.574Zm-4.17,0a2.6,2.6,0,0,0,.42,1.6A1.456,1.456,0,0,0,45.5-.427a1.466,1.466,0,0,0,1.236-.547,2.585,2.585,0,0,0,.422-1.6,2.543,2.543,0,0,0-.422-1.586A1.483,1.483,0,0,0,45.491-4.7a1.459,1.459,0,0,0-1.229.534A2.572,2.572,0,0,0,43.848-2.574ZM53.218.168V-3.373a1.429,1.429,0,0,0-.3-1,1.241,1.241,0,0,0-.954-.33,1.573,1.573,0,0,0-1.259.464A2.345,2.345,0,0,0,50.3-2.7V.168h-.829V-5.306h.674l.135.749h.04a1.693,1.693,0,0,1,.714-.627,2.32,2.32,0,0,1,1.024-.222,2.079,2.079,0,0,1,1.488.477,2.03,2.03,0,0,1,.5,1.526V.168Zm9.9,0-.909-2.322H59.286l-.9,2.322h-.859l2.887-7.332h.714L64,.168ZM61.948-2.919,61.1-5.181q-.165-.43-.34-1.054a9.462,9.462,0,0,1-.315,1.054l-.859,2.262ZM67.067.268a2.336,2.336,0,0,1-1.84-.732,3.009,3.009,0,0,1-.652-2.07,3.1,3.1,0,0,1,.662-2.123,2.383,2.383,0,0,1,1.885-.749,3.741,3.741,0,0,1,.789.085,2.6,2.6,0,0,1,.619.2l-.255.7a3.9,3.9,0,0,0-.6-.182,2.676,2.676,0,0,0-.574-.072q-1.668,0-1.668,2.128A2.533,2.533,0,0,0,65.841-1a1.416,1.416,0,0,0,1.206.539,3.688,3.688,0,0,0,1.4-.295v.734A2.991,2.991,0,0,1,67.067.268Zm4.87,0A2.336,2.336,0,0,1,70.1-.464a3.009,3.009,0,0,1-.652-2.07,3.1,3.1,0,0,1,.662-2.123,2.383,2.383,0,0,1,1.885-.749,3.741,3.741,0,0,1,.789.085,2.6,2.6,0,0,1,.619.2l-.255.7a3.9,3.9,0,0,0-.6-.182,2.676,2.676,0,0,0-.574-.072q-1.668,0-1.668,2.128A2.533,2.533,0,0,0,70.71-1a1.416,1.416,0,0,0,1.206.539,3.688,3.688,0,0,0,1.4-.295v.734A2.991,2.991,0,0,1,71.937.268Zm7.407-2.842a3.02,3.02,0,0,1-.674,2.09,2.375,2.375,0,0,1-1.863.752,2.467,2.467,0,0,1-1.3-.345,2.274,2.274,0,0,1-.879-.989,3.446,3.446,0,0,1-.31-1.508,3.015,3.015,0,0,1,.669-2.085,2.367,2.367,0,0,1,1.858-.747,2.316,2.316,0,0,1,1.825.764A3.007,3.007,0,0,1,79.343-2.574Zm-4.17,0a2.6,2.6,0,0,0,.42,1.6,1.456,1.456,0,0,0,1.234.549,1.466,1.466,0,0,0,1.236-.547,2.585,2.585,0,0,0,.422-1.6,2.543,2.543,0,0,0-.422-1.586A1.483,1.483,0,0,0,76.816-4.7a1.459,1.459,0,0,0-1.229.534A2.572,2.572,0,0,0,75.173-2.574Zm6.4-2.732v3.551a1.429,1.429,0,0,0,.3,1,1.241,1.241,0,0,0,.954.33A1.556,1.556,0,0,0,84.09-.9a2.368,2.368,0,0,0,.4-1.533V-5.306h.829V.168h-.684l-.12-.734h-.045a1.652,1.652,0,0,1-.707.619,2.375,2.375,0,0,1-1.031.215,2.092,2.092,0,0,1-1.5-.474,2.02,2.02,0,0,1-.5-1.518V-5.306ZM90.82.168V-3.373a1.429,1.429,0,0,0-.3-1,1.241,1.241,0,0,0-.954-.33,1.573,1.573,0,0,0-1.259.464A2.345,2.345,0,0,0,87.9-2.7V.168h-.829V-5.306h.674l.135.749h.04a1.693,1.693,0,0,1,.714-.627,2.321,2.321,0,0,1,1.024-.222,2.079,2.079,0,0,1,1.488.477,2.03,2.03,0,0,1,.5,1.526V.168Zm4.3-.584a2.708,2.708,0,0,0,.425-.032,2.748,2.748,0,0,0,.325-.067V.118a1.516,1.516,0,0,1-.4.107A2.982,2.982,0,0,1,95,.268q-1.588,0-1.588-1.673V-4.662h-.784v-.4l.784-.345.35-1.169h.479v1.269H95.83v.644H94.242v3.221a1.108,1.108,0,0,0,.235.759A.817.817,0,0,0,95.121-.417Z" transform="translate(31.698 62.117)" fill="#999"/>
    <path id="Path_14646" data-name="Path 14646" d="M.981.163v-7.3H1.83v7.3Zm9.7,0V-3.4a1.478,1.478,0,0,0-.28-.981,1.082,1.082,0,0,0-.869-.327,1.4,1.4,0,0,0-1.144.444,2.112,2.112,0,0,0-.37,1.368V.163H7.194V-3.4a1.478,1.478,0,0,0-.28-.981,1.088,1.088,0,0,0-.874-.327A1.354,1.354,0,0,0,4.9-4.239a2.527,2.527,0,0,0-.362,1.531V.163H3.708V-5.311h.674l.135.749h.04a1.629,1.629,0,0,1,.662-.624,2.022,2.022,0,0,1,.956-.225,1.626,1.626,0,0,1,1.678.929h.04A1.745,1.745,0,0,1,8.6-5.161a2.2,2.2,0,0,1,1.059-.25,1.854,1.854,0,0,1,1.391.477,2.134,2.134,0,0,1,.462,1.526V.163Zm5.084.1a2.369,2.369,0,0,1-.976-.2,1.836,1.836,0,0,1-.742-.607h-.06a7.342,7.342,0,0,1,.06.909V2.62h-.829V-5.311H13.9l.115.749h.04a1.925,1.925,0,0,1,.744-.649,2.262,2.262,0,0,1,.974-.2,2.023,2.023,0,0,1,1.681.744,3.276,3.276,0,0,1,.592,2.088,3.257,3.257,0,0,1-.6,2.1A2.027,2.027,0,0,1,15.77.263Zm-.12-4.969a1.469,1.469,0,0,0-1.214.464,2.39,2.39,0,0,0-.385,1.478v.185a2.739,2.739,0,0,0,.385,1.651,1.463,1.463,0,0,0,1.234.5,1.283,1.283,0,0,0,1.111-.574,2.723,2.723,0,0,0,.4-1.583,2.621,2.621,0,0,0-.4-1.571A1.322,1.322,0,0,0,15.65-4.706Zm8.565,2.128a3.02,3.02,0,0,1-.674,2.09,2.375,2.375,0,0,1-1.863.752,2.467,2.467,0,0,1-1.3-.345,2.274,2.274,0,0,1-.879-.989,3.446,3.446,0,0,1-.31-1.508,3.015,3.015,0,0,1,.669-2.085,2.367,2.367,0,0,1,1.858-.747,2.316,2.316,0,0,1,1.825.764A3.007,3.007,0,0,1,24.215-2.579Zm-4.17,0a2.6,2.6,0,0,0,.42,1.6A1.456,1.456,0,0,0,21.7-.431a1.466,1.466,0,0,0,1.236-.547,2.585,2.585,0,0,0,.422-1.6,2.543,2.543,0,0,0-.422-1.586,1.483,1.483,0,0,0-1.246-.542,1.459,1.459,0,0,0-1.229.534A2.572,2.572,0,0,0,20.045-2.579Zm8.121-2.832a3.244,3.244,0,0,1,.654.06l-.115.769a2.824,2.824,0,0,0-.6-.075,1.459,1.459,0,0,0-1.136.539A1.967,1.967,0,0,0,26.5-2.774V.163h-.829V-5.311h.684L26.448-4.3h.04a2.406,2.406,0,0,1,.734-.824A1.653,1.653,0,0,1,28.166-5.411ZM31.612-.421a2.708,2.708,0,0,0,.425-.032,2.748,2.748,0,0,0,.325-.067V.113a1.516,1.516,0,0,1-.4.107,2.982,2.982,0,0,1-.472.042Q29.9.263,29.9-1.41V-4.666H29.12v-.4l.784-.345.35-1.169h.479v1.269h1.588v.644H30.733v3.221a1.108,1.108,0,0,0,.235.759A.817.817,0,0,0,31.612-.421Zm5.209.584-.165-.779h-.04a2.3,2.3,0,0,1-.817.7,2.489,2.489,0,0,1-1.016.182,1.828,1.828,0,0,1-1.276-.42,1.53,1.53,0,0,1-.462-1.194q0-1.658,2.652-1.738l.929-.03v-.34a1.388,1.388,0,0,0-.277-.951,1.14,1.14,0,0,0-.887-.307,3.612,3.612,0,0,0-1.548.42l-.255-.634a3.9,3.9,0,0,1,.887-.345,3.839,3.839,0,0,1,.966-.125,2.085,2.085,0,0,1,1.451.435,1.814,1.814,0,0,1,.472,1.393V.163ZM34.948-.421a1.683,1.683,0,0,0,1.216-.425,1.57,1.57,0,0,0,.442-1.189v-.494l-.829.035a3.016,3.016,0,0,0-1.426.307.926.926,0,0,0-.437.847.854.854,0,0,0,.272.684A1.13,1.13,0,0,0,34.948-.421Zm7.941.584V-3.378a1.429,1.429,0,0,0-.3-1,1.241,1.241,0,0,0-.954-.33,1.573,1.573,0,0,0-1.259.464,2.345,2.345,0,0,0-.4,1.533V.163h-.829V-5.311h.674l.135.749h.04a1.693,1.693,0,0,1,.714-.627,2.32,2.32,0,0,1,1.024-.222,2.079,2.079,0,0,1,1.488.477,2.03,2.03,0,0,1,.5,1.526V.163Zm4.3-.584a2.708,2.708,0,0,0,.425-.032,2.748,2.748,0,0,0,.325-.067V.113a1.516,1.516,0,0,1-.4.107,2.982,2.982,0,0,1-.472.042q-1.588,0-1.588-1.673V-4.666H44.7v-.4l.784-.345.35-1.169h.479v1.269H47.9v.644H46.31v3.221a1.108,1.108,0,0,0,.235.759A.817.817,0,0,0,47.189-.421Z" transform="translate(49.086 246.235)" fill="#999"/>
    <path id="Path_14636" data-name="Path 14636" d="M5.16-2.069A1.42,1.42,0,0,1,4.65-.948a2.623,2.623,0,0,1-1.423.557V.768H2.582V-.346A6.583,6.583,0,0,1,1.5-.433,3.408,3.408,0,0,1,.64-.676v-.779a4.9,4.9,0,0,0,.956.3,4.7,4.7,0,0,0,.986.117v-2.2a3.455,3.455,0,0,1-1.436-.754A1.535,1.535,0,0,1,.735-5.1a1.332,1.332,0,0,1,.507-1.074,2.468,2.468,0,0,1,1.341-.509v-.909h.644v.9A5.069,5.069,0,0,1,5-6.319l-.26.654a5.072,5.072,0,0,0-1.513-.35v2.168A5.676,5.676,0,0,1,4.4-3.36a1.652,1.652,0,0,1,.574.544A1.423,1.423,0,0,1,5.16-2.069ZM4.311-2a.787.787,0,0,0-.222-.582,2.371,2.371,0,0,0-.862-.442v1.943Q4.311-1.235,4.311-2Zm-2.732-3.1A.834.834,0,0,0,1.8-4.5a2.154,2.154,0,0,0,.779.435V-5.995a1.43,1.43,0,0,0-.749.312A.749.749,0,0,0,1.579-5.106ZM11.133.173h-4.8V-.541L8.256-2.474A14.16,14.16,0,0,0,9.415-3.742a3.238,3.238,0,0,0,.42-.739,2.117,2.117,0,0,0,.14-.774,1.227,1.227,0,0,0-.355-.926,1.358,1.358,0,0,0-.984-.342,2.474,2.474,0,0,0-.862.15,3.434,3.434,0,0,0-.906.544l-.44-.564a3.366,3.366,0,0,1,2.2-.839,2.322,2.322,0,0,1,1.613.527,1.812,1.812,0,0,1,.584,1.416,2.734,2.734,0,0,1-.39,1.373A8.72,8.72,0,0,1,8.975-2.2L7.377-.636V-.6h3.756Zm2.3-1.189.075.115q-.13.5-.375,1.161t-.509,1.231H12q.135-.519.3-1.284t.227-1.224Zm6.1-2.472a5.332,5.332,0,0,1-.6,2.827,2.016,2.016,0,0,1-1.825.934,2,2,0,0,1-1.793-.956,5.226,5.226,0,0,1-.614-2.8,5.331,5.331,0,0,1,.594-2.832,2.007,2.007,0,0,1,1.813-.924,2.01,2.01,0,0,1,1.805.964A5.2,5.2,0,0,1,19.528-3.488Zm-3.991,0a5.348,5.348,0,0,0,.375,2.32,1.253,1.253,0,0,0,1.194.727,1.254,1.254,0,0,0,1.2-.737,5.389,5.389,0,0,0,.372-2.31,5.353,5.353,0,0,0-.372-2.3,1.254,1.254,0,0,0-1.2-.732,1.254,1.254,0,0,0-1.194.722A5.312,5.312,0,0,0,15.538-3.488Zm9.839,0a5.332,5.332,0,0,1-.6,2.827,2.016,2.016,0,0,1-1.825.934,2,2,0,0,1-1.793-.956,5.226,5.226,0,0,1-.614-2.8,5.331,5.331,0,0,1,.594-2.832,2.007,2.007,0,0,1,1.813-.924,2.01,2.01,0,0,1,1.805.964A5.2,5.2,0,0,1,25.377-3.488Zm-3.991,0a5.348,5.348,0,0,0,.375,2.32,1.253,1.253,0,0,0,1.194.727,1.254,1.254,0,0,0,1.2-.737,5.389,5.389,0,0,0,.372-2.31,5.353,5.353,0,0,0-.372-2.3,1.254,1.254,0,0,0-1.2-.732,1.254,1.254,0,0,0-1.194.722A5.312,5.312,0,0,0,21.386-3.488Zm9.839,0a5.332,5.332,0,0,1-.6,2.827A2.016,2.016,0,0,1,28.8.273,2,2,0,0,1,27.01-.683a5.226,5.226,0,0,1-.614-2.8,5.331,5.331,0,0,1,.594-2.832A2.007,2.007,0,0,1,28.8-7.243a2.01,2.01,0,0,1,1.805.964A5.2,5.2,0,0,1,31.225-3.488Zm-3.991,0a5.348,5.348,0,0,0,.375,2.32A1.253,1.253,0,0,0,28.8-.441,1.254,1.254,0,0,0,30-1.178a5.389,5.389,0,0,0,.372-2.31A5.353,5.353,0,0,0,30-5.792a1.254,1.254,0,0,0-1.2-.732,1.254,1.254,0,0,0-1.194.722A5.312,5.312,0,0,0,27.235-3.488ZM32.494-.356a.744.744,0,0,1,.152-.507.552.552,0,0,1,.437-.172.591.591,0,0,1,.452.172.713.713,0,0,1,.162.507.7.7,0,0,1-.165.5.588.588,0,0,1-.449.175.592.592,0,0,1-.422-.157A.684.684,0,0,1,32.494-.356Zm7.3-3.131a5.332,5.332,0,0,1-.6,2.827,2.016,2.016,0,0,1-1.825.934A2,2,0,0,1,35.58-.683a5.226,5.226,0,0,1-.614-2.8,5.331,5.331,0,0,1,.594-2.832,2.007,2.007,0,0,1,1.813-.924,2.01,2.01,0,0,1,1.805.964A5.2,5.2,0,0,1,39.8-3.488Zm-3.991,0a5.347,5.347,0,0,0,.375,2.32,1.253,1.253,0,0,0,1.194.727,1.254,1.254,0,0,0,1.2-.737,5.389,5.389,0,0,0,.372-2.31,5.353,5.353,0,0,0-.372-2.3,1.254,1.254,0,0,0-1.2-.732A1.254,1.254,0,0,0,36.18-5.8,5.312,5.312,0,0,0,35.805-3.488Zm9.839,0a5.332,5.332,0,0,1-.6,2.827,2.016,2.016,0,0,1-1.825.934,2,2,0,0,1-1.793-.956,5.226,5.226,0,0,1-.614-2.8,5.331,5.331,0,0,1,.594-2.832,2.007,2.007,0,0,1,1.813-.924,2.01,2.01,0,0,1,1.805.964A5.2,5.2,0,0,1,45.644-3.488Zm-3.991,0a5.348,5.348,0,0,0,.375,2.32,1.253,1.253,0,0,0,1.194.727,1.254,1.254,0,0,0,1.2-.737,5.389,5.389,0,0,0,.372-2.31,5.353,5.353,0,0,0-.372-2.3,1.254,1.254,0,0,0-1.2-.732,1.254,1.254,0,0,0-1.194.722A5.312,5.312,0,0,0,41.653-3.488ZM55.328-7.128V-2.4a2.574,2.574,0,0,1-.754,1.963A2.892,2.892,0,0,1,52.5.273a2.765,2.765,0,0,1-2.04-.719,2.667,2.667,0,0,1-.722-1.978v-4.7h.849v4.765a1.877,1.877,0,0,0,.5,1.4,2.015,2.015,0,0,0,1.468.489A1.943,1.943,0,0,0,53.98-.963a1.893,1.893,0,0,0,.5-1.411V-7.128Zm6.053,5.359a1.791,1.791,0,0,1-.7,1.5,3.032,3.032,0,0,1-1.9.539,4.754,4.754,0,0,1-2-.335V-.88a5.26,5.26,0,0,0,.979.3,5.15,5.15,0,0,0,1.049.11,2.116,2.116,0,0,0,1.279-.322,1.057,1.057,0,0,0,.43-.9,1.151,1.151,0,0,0-.152-.622,1.415,1.415,0,0,0-.509-.447,7.127,7.127,0,0,0-1.086-.464,3.467,3.467,0,0,1-1.456-.864,1.908,1.908,0,0,1-.437-1.3,1.621,1.621,0,0,1,.634-1.343,2.636,2.636,0,0,1,1.678-.5,4.946,4.946,0,0,1,2,.4l-.265.739a4.526,4.526,0,0,0-1.758-.38,1.7,1.7,0,0,0-1.054.29.955.955,0,0,0-.38.8,1.232,1.232,0,0,0,.14.622,1.317,1.317,0,0,0,.472.444,5.864,5.864,0,0,0,1.016.447,4.024,4.024,0,0,1,1.581.879A1.729,1.729,0,0,1,61.381-1.769ZM68.7-3.547a3.686,3.686,0,0,1-.981,2.764A3.883,3.883,0,0,1,64.9.173H62.875v-7.3h2.237a3.579,3.579,0,0,1,2.647.944A3.565,3.565,0,0,1,68.7-3.547Zm-.9.03a2.94,2.94,0,0,0-.717-2.153,2.872,2.872,0,0,0-2.13-.724H63.724V-.561h1.034a3.143,3.143,0,0,0,2.282-.747A2.956,2.956,0,0,0,67.8-3.517Z" transform="translate(176.934 94.843)" fill="#fff"/>
    <path id="Path_14637" data-name="Path 14637" d="M4.213.174,1.736-6.3H1.7q.07.769.07,1.828V.174H.981v-7.3H2.26L4.572-1.1h.04L6.945-7.128H8.213v7.3H7.364v-4.7q0-.809.07-1.758h-.04L4.9.174ZM9.222-5.3h.889l1.2,3.121A11.873,11.873,0,0,1,11.8-.635h.04q.065-.255.272-.872T13.467-5.3h.889L12,.933a3.109,3.109,0,0,1-.817,1.311,1.736,1.736,0,0,1-1.146.387,3.335,3.335,0,0,1-.749-.085V1.882a2.89,2.89,0,0,0,.614.06A1.266,1.266,0,0,0,11.125.983L11.43.2ZM20.09.273a2.336,2.336,0,0,1-1.84-.732,3.009,3.009,0,0,1-.652-2.07,3.1,3.1,0,0,1,.662-2.123A2.383,2.383,0,0,1,20.145-5.4a3.741,3.741,0,0,1,.789.085,2.6,2.6,0,0,1,.619.2l-.255.7a3.9,3.9,0,0,0-.6-.182,2.676,2.676,0,0,0-.574-.072q-1.668,0-1.668,2.128A2.533,2.533,0,0,0,18.864-.99a1.416,1.416,0,0,0,1.206.539,3.688,3.688,0,0,0,1.4-.295v.734A2.991,2.991,0,0,1,20.09.273Zm6.428-.1V-3.367a1.429,1.429,0,0,0-.3-1,1.241,1.241,0,0,0-.954-.33A1.563,1.563,0,0,0,24-4.226a2.378,2.378,0,0,0-.4,1.538V.174h-.829V-7.6H23.6v2.352a5.126,5.126,0,0,1-.04.7h.05a1.691,1.691,0,0,1,.7-.622,2.265,2.265,0,0,1,1.031-.227,2.112,2.112,0,0,1,1.506.477,2.009,2.009,0,0,1,.5,1.516V.174Zm4.845.1a2.515,2.515,0,0,1-1.915-.739,2.862,2.862,0,0,1-.7-2.053,3.174,3.174,0,0,1,.652-2.1A2.165,2.165,0,0,1,31.147-5.4a2.064,2.064,0,0,1,1.628.677,2.594,2.594,0,0,1,.6,1.785v.524H29.6A2.17,2.17,0,0,0,30.091-.95a1.684,1.684,0,0,0,1.3.5A4.409,4.409,0,0,0,33.14-.82v.739a4.387,4.387,0,0,1-.832.272A4.673,4.673,0,0,1,31.362.273Zm-.225-4.979a1.354,1.354,0,0,0-1.051.43,1.98,1.98,0,0,0-.462,1.189h2.862a1.823,1.823,0,0,0-.35-1.2A1.231,1.231,0,0,0,31.138-4.706ZM36.976.273a2.336,2.336,0,0,1-1.84-.732,3.009,3.009,0,0,1-.652-2.07,3.1,3.1,0,0,1,.662-2.123A2.383,2.383,0,0,1,37.031-5.4a3.741,3.741,0,0,1,.789.085,2.6,2.6,0,0,1,.619.2l-.255.7a3.9,3.9,0,0,0-.6-.182,2.676,2.676,0,0,0-.574-.072q-1.668,0-1.668,2.128A2.533,2.533,0,0,0,35.75-.99a1.416,1.416,0,0,0,1.206.539,3.688,3.688,0,0,0,1.4-.295v.734A2.991,2.991,0,0,1,36.976.273Zm3.5-2.9a9.75,9.75,0,0,1,.654-.8L42.9-5.3h.984L41.666-2.968,44.038.174h-1L41.1-2.413l-.624.539V.174h-.819V-7.6h.819v4.12q0,.275-.04.849Zm5.379,2.8h-.829V-5.3h.829Zm-.9-6.957A.551.551,0,0,1,45.1-7.2a.489.489,0,0,1,.35-.132.488.488,0,0,1,.345.135.541.541,0,0,1,.145.415.549.549,0,0,1-.145.417.484.484,0,0,1-.345.137.479.479,0,0,1-.35-.137A.561.561,0,0,1,44.957-6.784ZM51.36.174V-3.367a1.429,1.429,0,0,0-.3-1A1.241,1.241,0,0,0,50.1-4.7a1.573,1.573,0,0,0-1.259.464,2.345,2.345,0,0,0-.4,1.533V.174h-.829V-5.3h.674l.135.749h.04a1.693,1.693,0,0,1,.714-.627A2.32,2.32,0,0,1,50.2-5.4a2.079,2.079,0,0,1,1.488.477,2.03,2.03,0,0,1,.5,1.526V.174ZM58.372-5.3v.524l-1.014.12a1.743,1.743,0,0,1,.25.457,1.744,1.744,0,0,1,.11.637,1.618,1.618,0,0,1-.549,1.284A2.216,2.216,0,0,1,55.66-1.8a2.512,2.512,0,0,1-.459-.04.816.816,0,0,0-.529.7.358.358,0,0,0,.185.332A1.35,1.35,0,0,0,55.49-.7h.969a2.17,2.17,0,0,1,1.366.375A1.3,1.3,0,0,1,58.3.768a1.554,1.554,0,0,1-.729,1.386,3.9,3.9,0,0,1-2.128.477,2.907,2.907,0,0,1-1.656-.4A1.29,1.29,0,0,1,53.208,1.1a1.268,1.268,0,0,1,.32-.864,1.628,1.628,0,0,1,.9-.494.867.867,0,0,1-.352-.295.78.78,0,0,1-.142-.464.881.881,0,0,1,.16-.524,1.68,1.68,0,0,1,.5-.435,1.479,1.479,0,0,1-.692-.594,1.746,1.746,0,0,1-.267-.959,1.771,1.771,0,0,1,.539-1.386A2.2,2.2,0,0,1,55.7-5.4a2.779,2.779,0,0,1,.774.1ZM54.007,1.093a.743.743,0,0,0,.375.674A2.067,2.067,0,0,0,55.455,2,3,3,0,0,0,57,1.684a.956.956,0,0,0,.5-.847.67.67,0,0,0-.275-.617A2.133,2.133,0,0,0,56.194.049H55.2a1.309,1.309,0,0,0-.879.27A.964.964,0,0,0,54.007,1.093Zm.449-4.64a1.114,1.114,0,0,0,.325.869,1.3,1.3,0,0,0,.9.295A1.058,1.058,0,0,0,56.9-3.562,1.088,1.088,0,0,0,55.67-4.8a1.216,1.216,0,0,0-.9.315A1.267,1.267,0,0,0,54.456-3.547Z" transform="translate(176.942 62.111)" fill="#fff"/>
    <path id="Path_14638" data-name="Path 14638" d="M3.249.174H2.4V-6.374H.088v-.754H5.562v.754H3.249ZM11.26-2.568a3.02,3.02,0,0,1-.674,2.09A2.375,2.375,0,0,1,8.723.273a2.467,2.467,0,0,1-1.3-.345,2.274,2.274,0,0,1-.879-.989,3.446,3.446,0,0,1-.31-1.508A3.015,3.015,0,0,1,6.9-4.653,2.367,2.367,0,0,1,8.758-5.4a2.316,2.316,0,0,1,1.825.764A3.007,3.007,0,0,1,11.26-2.568Zm-4.17,0a2.6,2.6,0,0,0,.42,1.6,1.456,1.456,0,0,0,1.234.549A1.466,1.466,0,0,0,9.979-.968a2.585,2.585,0,0,0,.422-1.6,2.543,2.543,0,0,0-.422-1.586A1.483,1.483,0,0,0,8.733-4.7,1.459,1.459,0,0,0,7.5-4.162,2.572,2.572,0,0,0,7.09-2.568ZM14.482-.411a2.708,2.708,0,0,0,.425-.032,2.748,2.748,0,0,0,.325-.067V.124a1.516,1.516,0,0,1-.4.107,2.982,2.982,0,0,1-.472.042q-1.588,0-1.588-1.673V-4.656h-.784v-.4l.784-.345.35-1.169H13.6V-5.3h1.588v.644H13.6v3.221a1.108,1.108,0,0,0,.235.759A.817.817,0,0,0,14.482-.411Zm5.209.584-.165-.779h-.04a2.3,2.3,0,0,1-.817.7,2.489,2.489,0,0,1-1.016.182,1.828,1.828,0,0,1-1.276-.42,1.53,1.53,0,0,1-.462-1.194q0-1.658,2.652-1.738l.929-.03v-.34a1.388,1.388,0,0,0-.277-.951,1.14,1.14,0,0,0-.887-.307,3.612,3.612,0,0,0-1.548.42l-.255-.634a3.9,3.9,0,0,1,.887-.345,3.839,3.839,0,0,1,.966-.125,2.085,2.085,0,0,1,1.451.435,1.814,1.814,0,0,1,.472,1.393V.174ZM17.818-.411a1.683,1.683,0,0,0,1.216-.425,1.57,1.57,0,0,0,.442-1.189v-.494l-.829.035a3.016,3.016,0,0,0-1.426.307.926.926,0,0,0-.437.847.854.854,0,0,0,.272.684A1.13,1.13,0,0,0,17.818-.411Zm5.024.584h-.829V-7.6h.829Zm4.54-7.3h2.063a3.892,3.892,0,0,1,2.1.435A1.534,1.534,0,0,1,32.2-5.32a1.587,1.587,0,0,1-.362,1.071,1.743,1.743,0,0,1-1.056.547v.05q1.663.285,1.663,1.748A1.877,1.877,0,0,1,31.78-.376a2.817,2.817,0,0,1-1.85.549H27.382ZM28.231-4h1.4a2.277,2.277,0,0,0,1.294-.282,1.089,1.089,0,0,0,.395-.951.963.963,0,0,0-.44-.887,2.746,2.746,0,0,0-1.4-.272H28.231Zm0,.719V-.551h1.523a2.17,2.17,0,0,0,1.331-.342,1.263,1.263,0,0,0,.447-1.071,1.134,1.134,0,0,0-.457-1,2.443,2.443,0,0,0-1.391-.32ZM37.251.174l-.165-.779h-.04a2.3,2.3,0,0,1-.817.7,2.489,2.489,0,0,1-1.016.182,1.828,1.828,0,0,1-1.276-.42,1.53,1.53,0,0,1-.462-1.194q0-1.658,2.652-1.738l.929-.03v-.34a1.388,1.388,0,0,0-.277-.951,1.14,1.14,0,0,0-.887-.307,3.612,3.612,0,0,0-1.548.42l-.255-.634a3.9,3.9,0,0,1,.887-.345,3.84,3.84,0,0,1,.966-.125,2.085,2.085,0,0,1,1.451.435,1.814,1.814,0,0,1,.472,1.393V.174ZM35.378-.411a1.683,1.683,0,0,0,1.216-.425,1.57,1.57,0,0,0,.442-1.189v-.494l-.829.035a3.016,3.016,0,0,0-1.426.307.926.926,0,0,0-.437.847.854.854,0,0,0,.272.684A1.13,1.13,0,0,0,35.378-.411ZM40.4.174h-.829V-7.6H40.4Zm5.124,0-.165-.779h-.04a2.3,2.3,0,0,1-.817.7,2.489,2.489,0,0,1-1.016.182,1.828,1.828,0,0,1-1.276-.42,1.53,1.53,0,0,1-.462-1.194Q41.751-3,44.4-3.078l.929-.03v-.34a1.388,1.388,0,0,0-.277-.951,1.14,1.14,0,0,0-.887-.307,3.612,3.612,0,0,0-1.548.42l-.255-.634a3.9,3.9,0,0,1,.887-.345,3.839,3.839,0,0,1,.966-.125,2.085,2.085,0,0,1,1.451.435,1.814,1.814,0,0,1,.472,1.393V.174ZM43.654-.411A1.683,1.683,0,0,0,44.87-.835a1.57,1.57,0,0,0,.442-1.189v-.494l-.829.035a3.016,3.016,0,0,0-1.426.307.926.926,0,0,0-.437.847.854.854,0,0,0,.272.684A1.13,1.13,0,0,0,43.654-.411Zm7.941.584V-3.367a1.429,1.429,0,0,0-.3-1,1.241,1.241,0,0,0-.954-.33,1.573,1.573,0,0,0-1.259.464,2.345,2.345,0,0,0-.4,1.533V.174h-.829V-5.3h.674l.135.749h.04a1.693,1.693,0,0,1,.714-.627A2.32,2.32,0,0,1,50.436-5.4a2.079,2.079,0,0,1,1.488.477,2.03,2.03,0,0,1,.5,1.526V.174Zm4.72.1a2.336,2.336,0,0,1-1.84-.732,3.009,3.009,0,0,1-.652-2.07,3.1,3.1,0,0,1,.662-2.123A2.383,2.383,0,0,1,56.37-5.4a3.741,3.741,0,0,1,.789.085,2.6,2.6,0,0,1,.619.2l-.255.7a3.9,3.9,0,0,0-.6-.182,2.676,2.676,0,0,0-.574-.072q-1.668,0-1.668,2.128A2.533,2.533,0,0,0,55.088-.99a1.416,1.416,0,0,0,1.206.539,3.688,3.688,0,0,0,1.4-.295v.734A2.991,2.991,0,0,1,56.315.273Zm4.994,0a2.515,2.515,0,0,1-1.915-.739,2.862,2.862,0,0,1-.7-2.053,3.174,3.174,0,0,1,.652-2.1A2.165,2.165,0,0,1,61.094-5.4a2.064,2.064,0,0,1,1.628.677,2.594,2.594,0,0,1,.6,1.785v.524H59.551A2.17,2.17,0,0,0,60.038-.95a1.684,1.684,0,0,0,1.3.5,4.409,4.409,0,0,0,1.748-.37v.739a4.387,4.387,0,0,1-.832.272A4.673,4.673,0,0,1,61.309.273Zm-.225-4.979a1.354,1.354,0,0,0-1.051.43,1.98,1.98,0,0,0-.462,1.189h2.862a1.823,1.823,0,0,0-.35-1.2A1.231,1.231,0,0,0,61.084-4.706Z" transform="translate(176.922 130.642)" fill="#999"/>
    <path id="Path_14648" data-name="Path 14648" d="M4.213.165,1.736-6.307H1.7q.07.769.07,1.828V.165H.981v-7.3H2.26L4.572-1.113h.04L6.945-7.136H8.213v7.3H7.364v-4.7q0-.809.07-1.758h-.04L4.9.165ZM9.222-5.308h.889l1.2,3.121A11.873,11.873,0,0,1,11.8-.644h.04q.065-.255.272-.872t1.356-3.793h.889L12,.925a3.109,3.109,0,0,1-.817,1.311,1.736,1.736,0,0,1-1.146.387,3.335,3.335,0,0,1-.749-.085V1.874a2.89,2.89,0,0,0,.614.06A1.266,1.266,0,0,0,11.125.975L11.43.2ZM23.541-7.136v4.725a2.574,2.574,0,0,1-.754,1.963,2.892,2.892,0,0,1-2.073.714,2.765,2.765,0,0,1-2.04-.719,2.667,2.667,0,0,1-.722-1.978v-4.7H18.8v4.765a1.877,1.877,0,0,0,.5,1.4,2.015,2.015,0,0,0,1.468.489,1.943,1.943,0,0,0,1.423-.492,1.893,1.893,0,0,0,.5-1.411V-7.136Zm6.053,5.359a1.791,1.791,0,0,1-.7,1.5A3.032,3.032,0,0,1,27,.265a4.754,4.754,0,0,1-2-.335V-.888a5.26,5.26,0,0,0,.979.3,5.15,5.15,0,0,0,1.049.11A2.116,2.116,0,0,0,28.306-.8a1.057,1.057,0,0,0,.43-.9,1.151,1.151,0,0,0-.152-.622,1.415,1.415,0,0,0-.509-.447,7.127,7.127,0,0,0-1.086-.464,3.467,3.467,0,0,1-1.456-.864,1.908,1.908,0,0,1-.437-1.3,1.621,1.621,0,0,1,.634-1.343,2.636,2.636,0,0,1,1.678-.5,4.946,4.946,0,0,1,2,.4l-.265.739a4.526,4.526,0,0,0-1.758-.38,1.7,1.7,0,0,0-1.054.29.955.955,0,0,0-.38.8,1.232,1.232,0,0,0,.14.622,1.317,1.317,0,0,0,.472.444,5.864,5.864,0,0,0,1.016.447A4.024,4.024,0,0,1,29.162-3,1.729,1.729,0,0,1,29.594-1.777Zm7.322-1.778a3.686,3.686,0,0,1-.981,2.764A3.883,3.883,0,0,1,33.11.165H31.088v-7.3h2.237a3.579,3.579,0,0,1,2.647.944A3.565,3.565,0,0,1,36.916-3.555Zm-.9.03A2.94,2.94,0,0,0,35.3-5.678,2.872,2.872,0,0,0,33.17-6.4H31.937V-.569H32.97a3.143,3.143,0,0,0,2.282-.747A2.956,2.956,0,0,0,36.017-3.525Z" transform="translate(31.698 128.605)" fill="#999"/>
    <path id="Path_14641" data-name="Path 14641" d="M.981.174v-7.3H1.83v7.3Zm6.473,0V-3.367a1.429,1.429,0,0,0-.3-1A1.241,1.241,0,0,0,6.2-4.7a1.573,1.573,0,0,0-1.259.464,2.345,2.345,0,0,0-.4,1.533V.174H3.708V-5.3h.674l.135.749h.04a1.693,1.693,0,0,1,.714-.627A2.32,2.32,0,0,1,6.3-5.4a2.079,2.079,0,0,1,1.488.477,2.03,2.03,0,0,1,.5,1.526V.174ZM19.106-3.487A4.02,4.02,0,0,1,18.22-.73a3.117,3.117,0,0,1-2.465,1,3.156,3.156,0,0,1-2.49-.986A4.053,4.053,0,0,1,12.389-3.5a4,4,0,0,1,.879-2.764,3.178,3.178,0,0,1,2.5-.981,3.11,3.11,0,0,1,2.457,1A4.016,4.016,0,0,1,19.106-3.487Zm-5.818,0a3.466,3.466,0,0,0,.632,2.25,2.242,2.242,0,0,0,1.835.767,2.22,2.22,0,0,0,1.833-.764,3.514,3.514,0,0,0,.619-2.252,3.486,3.486,0,0,0-.617-2.235,2.21,2.21,0,0,0-1.825-.762,2.253,2.253,0,0,0-1.845.767A3.43,3.43,0,0,0,13.288-3.487ZM23.107-5.4a3.244,3.244,0,0,1,.654.06l-.115.769a2.824,2.824,0,0,0-.6-.075,1.459,1.459,0,0,0-1.136.539,1.967,1.967,0,0,0-.472,1.343V.174h-.829V-5.3h.684l.095,1.014h.04a2.406,2.406,0,0,1,.734-.824A1.653,1.653,0,0,1,23.107-5.4Zm5.4,4.84h-.045a1.948,1.948,0,0,1-1.718.834,2.032,2.032,0,0,1-1.671-.734,3.232,3.232,0,0,1-.6-2.088,3.286,3.286,0,0,1,.6-2.1A2.017,2.017,0,0,1,26.747-5.4a1.991,1.991,0,0,1,1.708.809h.065l-.035-.395-.02-.385V-7.6h.829V.174H28.62Zm-1.658.14a1.509,1.509,0,0,0,1.231-.462,2.334,2.334,0,0,0,.382-1.491v-.175a2.747,2.747,0,0,0-.387-1.661,1.47,1.47,0,0,0-1.236-.5,1.269,1.269,0,0,0-1.116.567,2.819,2.819,0,0,0-.387,1.6,2.7,2.7,0,0,0,.385,1.583A1.3,1.3,0,0,0,26.852-.421Zm6.513.694A2.515,2.515,0,0,1,31.45-.466a2.862,2.862,0,0,1-.7-2.053,3.174,3.174,0,0,1,.652-2.1A2.165,2.165,0,0,1,33.15-5.4a2.064,2.064,0,0,1,1.628.677,2.594,2.594,0,0,1,.6,1.785v.524H31.607A2.17,2.17,0,0,0,32.094-.95a1.684,1.684,0,0,0,1.3.5,4.409,4.409,0,0,0,1.748-.37v.739a4.387,4.387,0,0,1-.832.272A4.673,4.673,0,0,1,33.365.273ZM33.14-4.706a1.354,1.354,0,0,0-1.051.43,1.98,1.98,0,0,0-.462,1.189h2.862a1.823,1.823,0,0,0-.35-1.2A1.231,1.231,0,0,0,33.14-4.706ZM39.288-5.4a3.244,3.244,0,0,1,.654.06l-.115.769a2.824,2.824,0,0,0-.6-.075,1.459,1.459,0,0,0-1.136.539,1.967,1.967,0,0,0-.472,1.343V.174h-.829V-5.3h.684l.095,1.014h.04a2.406,2.406,0,0,1,.734-.824A1.653,1.653,0,0,1,39.288-5.4Z" transform="translate(176.942 153.145)" fill="#999"/>
    <path id="Path_14639" data-name="Path 14639" d="M5.594.174,4.685-2.149H1.758L.859.174H0L2.887-7.158H3.6L6.473.174ZM4.42-2.913,3.571-5.175q-.165-.43-.34-1.054a9.463,9.463,0,0,1-.315,1.054L2.058-2.913ZM8.55.174,6.473-5.3h.889L8.54-2.054A15.365,15.365,0,0,1,9.01-.576h.04a11.167,11.167,0,0,1,.347-1.1Q9.689-2.5,10.708-5.3H11.6L9.519.174Zm7.292,0-.165-.779h-.04a2.3,2.3,0,0,1-.817.7A2.489,2.489,0,0,1,13.8.273a1.828,1.828,0,0,1-1.276-.42,1.53,1.53,0,0,1-.462-1.194q0-1.658,2.652-1.738l.929-.03v-.34A1.388,1.388,0,0,0,15.37-4.4a1.14,1.14,0,0,0-.887-.307,3.612,3.612,0,0,0-1.548.42l-.255-.634a3.9,3.9,0,0,1,.887-.345,3.839,3.839,0,0,1,.966-.125,2.085,2.085,0,0,1,1.451.435,1.814,1.814,0,0,1,.472,1.393V.174ZM13.969-.411a1.683,1.683,0,0,0,1.216-.425,1.57,1.57,0,0,0,.442-1.189v-.494l-.829.035a3.016,3.016,0,0,0-1.426.307.926.926,0,0,0-.437.847.854.854,0,0,0,.272.684A1.13,1.13,0,0,0,13.969-.411Zm5.024.584h-.829V-5.3h.829Zm-.9-6.957a.551.551,0,0,1,.14-.417.489.489,0,0,1,.35-.132.488.488,0,0,1,.345.135.541.541,0,0,1,.145.415.549.549,0,0,1-.145.417.484.484,0,0,1-.345.137.479.479,0,0,1-.35-.137A.561.561,0,0,1,18.095-6.784ZM21.581.174h-.829V-7.6h.829Zm1.638-.529a.744.744,0,0,1,.152-.507.552.552,0,0,1,.437-.172.591.591,0,0,1,.452.172.713.713,0,0,1,.162.507.7.7,0,0,1-.165.5.588.588,0,0,1-.449.175.592.592,0,0,1-.422-.157A.684.684,0,0,1,23.219-.356Zm5.624-6.772h2.063a3.892,3.892,0,0,1,2.1.435,1.534,1.534,0,0,1,.649,1.373A1.587,1.587,0,0,1,33.3-4.249a1.743,1.743,0,0,1-1.056.547v.05Q33.9-3.367,33.9-1.9A1.877,1.877,0,0,1,33.24-.376a2.817,2.817,0,0,1-1.85.549H28.843ZM29.692-4h1.4a2.276,2.276,0,0,0,1.294-.282,1.089,1.089,0,0,0,.395-.951.963.963,0,0,0-.44-.887,2.746,2.746,0,0,0-1.4-.272H29.692Zm0,.719V-.551h1.523a2.17,2.17,0,0,0,1.331-.342,1.263,1.263,0,0,0,.447-1.071,1.134,1.134,0,0,0-.457-1,2.443,2.443,0,0,0-1.391-.32ZM38.711.174l-.165-.779h-.04a2.3,2.3,0,0,1-.817.7,2.489,2.489,0,0,1-1.016.182A1.828,1.828,0,0,1,35.4-.146a1.53,1.53,0,0,1-.462-1.194q0-1.658,2.652-1.738l.929-.03v-.34a1.388,1.388,0,0,0-.277-.951,1.14,1.14,0,0,0-.887-.307,3.612,3.612,0,0,0-1.548.42l-.255-.634a3.9,3.9,0,0,1,.887-.345A3.84,3.84,0,0,1,37.4-5.39a2.085,2.085,0,0,1,1.451.435,1.814,1.814,0,0,1,.472,1.393V.174ZM36.839-.411a1.683,1.683,0,0,0,1.216-.425A1.57,1.57,0,0,0,38.5-2.024v-.494l-.829.035a3.016,3.016,0,0,0-1.426.307.926.926,0,0,0-.437.847.854.854,0,0,0,.272.684A1.13,1.13,0,0,0,36.839-.411Zm5.024.584h-.829V-7.6h.829Zm5.124,0-.165-.779h-.04a2.3,2.3,0,0,1-.817.7,2.489,2.489,0,0,1-1.016.182,1.828,1.828,0,0,1-1.276-.42,1.53,1.53,0,0,1-.462-1.194q0-1.658,2.652-1.738l.929-.03v-.34a1.388,1.388,0,0,0-.277-.951,1.14,1.14,0,0,0-.887-.307,3.612,3.612,0,0,0-1.548.42l-.255-.634a3.9,3.9,0,0,1,.887-.345,3.839,3.839,0,0,1,.966-.125,2.085,2.085,0,0,1,1.451.435A1.814,1.814,0,0,1,47.6-3.562V.174ZM45.114-.411A1.683,1.683,0,0,0,46.33-.835a1.57,1.57,0,0,0,.442-1.189v-.494l-.829.035a3.016,3.016,0,0,0-1.426.307.926.926,0,0,0-.437.847.854.854,0,0,0,.272.684A1.13,1.13,0,0,0,45.114-.411Zm7.941.584V-3.367a1.429,1.429,0,0,0-.3-1A1.241,1.241,0,0,0,51.8-4.7a1.573,1.573,0,0,0-1.259.464,2.345,2.345,0,0,0-.4,1.533V.174H49.31V-5.3h.674l.135.749h.04a1.693,1.693,0,0,1,.714-.627A2.32,2.32,0,0,1,51.9-5.4a2.079,2.079,0,0,1,1.488.477,2.03,2.03,0,0,1,.5,1.526V.174Zm4.72.1a2.336,2.336,0,0,1-1.84-.732,3.009,3.009,0,0,1-.652-2.07,3.1,3.1,0,0,1,.662-2.123A2.383,2.383,0,0,1,57.83-5.4a3.741,3.741,0,0,1,.789.085,2.6,2.6,0,0,1,.619.2l-.255.7a3.9,3.9,0,0,0-.6-.182,2.676,2.676,0,0,0-.574-.072q-1.668,0-1.668,2.128A2.533,2.533,0,0,0,56.549-.99a1.416,1.416,0,0,0,1.206.539,3.688,3.688,0,0,0,1.4-.295v.734A2.991,2.991,0,0,1,57.775.273Zm4.994,0a2.515,2.515,0,0,1-1.915-.739,2.862,2.862,0,0,1-.7-2.053,3.174,3.174,0,0,1,.652-2.1A2.165,2.165,0,0,1,62.555-5.4a2.064,2.064,0,0,1,1.628.677,2.594,2.594,0,0,1,.6,1.785v.524H61.011A2.17,2.17,0,0,0,61.5-.95a1.684,1.684,0,0,0,1.3.5,4.409,4.409,0,0,0,1.748-.37v.739a4.387,4.387,0,0,1-.832.272A4.673,4.673,0,0,1,62.769.273Zm-.225-4.979a1.354,1.354,0,0,0-1.051.43,1.98,1.98,0,0,0-.462,1.189h2.862a1.823,1.823,0,0,0-.35-1.2A1.231,1.231,0,0,0,62.545-4.706Z" transform="translate(176.92 175.648)" fill="#4cbf00"/>
    <path id="Path_14647" data-name="Path 14647" d="M3.249.168H2.4V-6.38H.088v-.754H5.562v.754H3.249ZM9.033-5.406a3.244,3.244,0,0,1,.654.06l-.115.769a2.824,2.824,0,0,0-.6-.075,1.459,1.459,0,0,0-1.136.539,1.967,1.967,0,0,0-.472,1.343V.168H6.536V-5.306H7.22l.095,1.014h.04a2.406,2.406,0,0,1,.734-.824A1.653,1.653,0,0,1,9.033-5.406ZM14.077.168l-.165-.779h-.04a2.3,2.3,0,0,1-.817.7,2.489,2.489,0,0,1-1.016.182,1.828,1.828,0,0,1-1.276-.42A1.53,1.53,0,0,1,10.3-1.346Q10.3-3,12.953-3.084l.929-.03v-.34a1.388,1.388,0,0,0-.277-.951,1.14,1.14,0,0,0-.887-.307,3.612,3.612,0,0,0-1.548.42l-.255-.634a3.9,3.9,0,0,1,.887-.345,3.839,3.839,0,0,1,.966-.125,2.085,2.085,0,0,1,1.451.435,1.814,1.814,0,0,1,.472,1.393V.168ZM12.2-.417A1.683,1.683,0,0,0,13.42-.841a1.57,1.57,0,0,0,.442-1.189v-.494l-.829.035a3.016,3.016,0,0,0-1.426.307.926.926,0,0,0-.437.847.854.854,0,0,0,.272.684A1.13,1.13,0,0,0,12.2-.417Zm7.941.584V-3.373a1.429,1.429,0,0,0-.3-1,1.241,1.241,0,0,0-.954-.33,1.573,1.573,0,0,0-1.259.464,2.345,2.345,0,0,0-.4,1.533V.168H16.4V-5.306h.674l.135.749h.04a1.693,1.693,0,0,1,.714-.627,2.32,2.32,0,0,1,1.024-.222,2.079,2.079,0,0,1,1.488.477,2.03,2.03,0,0,1,.5,1.526V.168Zm6.063-1.493a1.371,1.371,0,0,1-.569,1.179,2.676,2.676,0,0,1-1.6.415,3.475,3.475,0,0,1-1.7-.345V-.846a4.107,4.107,0,0,0,.847.315,3.535,3.535,0,0,0,.872.115,1.976,1.976,0,0,0,1-.207.685.685,0,0,0,.35-.632.686.686,0,0,0-.277-.547,4.36,4.36,0,0,0-1.081-.537,5.863,5.863,0,0,1-1.086-.5,1.484,1.484,0,0,1-.479-.482,1.257,1.257,0,0,1-.157-.644,1.228,1.228,0,0,1,.544-1.056,2.537,2.537,0,0,1,1.493-.387,4.369,4.369,0,0,1,1.728.36l-.295.674a3.967,3.967,0,0,0-1.493-.34,1.718,1.718,0,0,0-.889.185.571.571,0,0,0-.3.509.62.62,0,0,0,.112.375,1.109,1.109,0,0,0,.362.295,8.092,8.092,0,0,0,.959.4,3.582,3.582,0,0,1,1.316.714A1.259,1.259,0,0,1,26.208-1.326ZM30.923.168l-.165-.779h-.04a2.3,2.3,0,0,1-.817.7,2.489,2.489,0,0,1-1.016.182,1.828,1.828,0,0,1-1.276-.42,1.53,1.53,0,0,1-.462-1.194Q27.147-3,29.8-3.084l.929-.03v-.34a1.388,1.388,0,0,0-.277-.951,1.14,1.14,0,0,0-.887-.307,3.612,3.612,0,0,0-1.548.42l-.255-.634a3.9,3.9,0,0,1,.887-.345,3.839,3.839,0,0,1,.966-.125,2.085,2.085,0,0,1,1.451.435,1.814,1.814,0,0,1,.472,1.393V.168ZM29.05-.417a1.683,1.683,0,0,0,1.216-.425,1.57,1.57,0,0,0,.442-1.189v-.494l-.829.035a3.016,3.016,0,0,0-1.426.307.926.926,0,0,0-.437.847.854.854,0,0,0,.272.684A1.13,1.13,0,0,0,29.05-.417Zm6.383.684a2.336,2.336,0,0,1-1.84-.732,3.009,3.009,0,0,1-.652-2.07A3.1,3.1,0,0,1,33.6-4.657a2.383,2.383,0,0,1,1.885-.749,3.741,3.741,0,0,1,.789.085,2.6,2.6,0,0,1,.619.2l-.255.7a3.9,3.9,0,0,0-.6-.182,2.676,2.676,0,0,0-.574-.072q-1.668,0-1.668,2.128A2.533,2.533,0,0,0,34.207-1a1.416,1.416,0,0,0,1.206.539,3.688,3.688,0,0,0,1.4-.295v.734A2.991,2.991,0,0,1,35.433.268Zm4.45-.684a2.708,2.708,0,0,0,.425-.032,2.748,2.748,0,0,0,.325-.067V.118a1.516,1.516,0,0,1-.4.107,2.982,2.982,0,0,1-.472.042q-1.588,0-1.588-1.673V-4.662h-.784v-.4l.784-.345.35-1.169H39v1.269h1.588v.644H39v3.221a1.108,1.108,0,0,0,.235.759A.817.817,0,0,0,39.883-.417Zm2.672.584h-.829V-5.306h.829Zm-.9-6.957a.551.551,0,0,1,.14-.417.489.489,0,0,1,.35-.132.488.488,0,0,1,.345.135.541.541,0,0,1,.145.415.549.549,0,0,1-.145.417.484.484,0,0,1-.345.137.479.479,0,0,1-.35-.137A.561.561,0,0,1,41.656-6.789Zm7.382,4.215a3.02,3.02,0,0,1-.674,2.09A2.375,2.375,0,0,1,46.5.268a2.467,2.467,0,0,1-1.3-.345,2.274,2.274,0,0,1-.879-.989,3.446,3.446,0,0,1-.31-1.508,3.015,3.015,0,0,1,.669-2.085,2.367,2.367,0,0,1,1.858-.747,2.316,2.316,0,0,1,1.825.764A3.007,3.007,0,0,1,49.038-2.574Zm-4.17,0a2.6,2.6,0,0,0,.42,1.6,1.456,1.456,0,0,0,1.234.549,1.466,1.466,0,0,0,1.236-.547,2.585,2.585,0,0,0,.422-1.6,2.543,2.543,0,0,0-.422-1.586A1.483,1.483,0,0,0,46.511-4.7a1.459,1.459,0,0,0-1.229.534A2.572,2.572,0,0,0,44.868-2.574ZM54.237.168V-3.373a1.429,1.429,0,0,0-.3-1,1.241,1.241,0,0,0-.954-.33,1.573,1.573,0,0,0-1.259.464,2.345,2.345,0,0,0-.4,1.533V.168h-.829V-5.306h.674l.135.749h.04a1.693,1.693,0,0,1,.714-.627,2.32,2.32,0,0,1,1.024-.222,2.079,2.079,0,0,1,1.488.477,2.03,2.03,0,0,1,.5,1.526V.168Zm6.163,0h-.849v-7.3h4.07v.754H60.4v2.672h3.027v.754H60.4Zm6.618.1A2.515,2.515,0,0,1,65.1-.472a2.862,2.862,0,0,1-.7-2.053,3.174,3.174,0,0,1,.652-2.1A2.165,2.165,0,0,1,66.8-5.406a2.064,2.064,0,0,1,1.628.677,2.594,2.594,0,0,1,.6,1.785v.524H65.26a2.17,2.17,0,0,0,.487,1.463,1.684,1.684,0,0,0,1.3.5A4.409,4.409,0,0,0,68.8-.826v.739a4.387,4.387,0,0,1-.832.272A4.673,4.673,0,0,1,67.018.268Zm-.225-4.979a1.354,1.354,0,0,0-1.051.43,1.98,1.98,0,0,0-.462,1.189h2.862a1.823,1.823,0,0,0-.35-1.2A1.231,1.231,0,0,0,66.793-4.712ZM72.756.268a2.515,2.515,0,0,1-1.915-.739,2.862,2.862,0,0,1-.7-2.053,3.174,3.174,0,0,1,.652-2.1,2.165,2.165,0,0,1,1.751-.779,2.064,2.064,0,0,1,1.628.677,2.594,2.594,0,0,1,.6,1.785v.524H71a2.17,2.17,0,0,0,.487,1.463,1.684,1.684,0,0,0,1.3.5,4.409,4.409,0,0,0,1.748-.37v.739A4.388,4.388,0,0,1,73.7.185,4.673,4.673,0,0,1,72.756.268Zm-.225-4.979a1.354,1.354,0,0,0-1.051.43,1.98,1.98,0,0,0-.462,1.189H73.88a1.823,1.823,0,0,0-.35-1.2A1.231,1.231,0,0,0,72.531-4.712Z" transform="translate(31.677 212.476)" fill="#999"/>
    <path id="Path_14624" data-name="Path 14624" d="M-13.42.163h-4.07v-7.3h4.07v.754h-3.221v2.352h3.027v.749h-3.027V-.6h3.221Zm3.866,0H-10.4V-6.385h-2.312v-.754h5.474v.754H-9.554ZM-.6.163h-.849V-3.273H-5.294V.163h-.849v-7.3h.849v3.107h3.846V-7.139H-.6Z" transform="translate(381.09 130.653)" fill="#999"/>
    <path id="Path_14630" data-name="Path 14630" d="M-48.482-1.512h-1.084V.166h-.794V-1.512h-3.551v-.724l3.466-4.939h.879v4.909h1.084Zm-1.878-.754V-4.694q0-.714.05-1.613h-.04a7.5,7.5,0,0,1-.449.794l-2.282,3.246Zm2.842,1.9a.744.744,0,0,1,.152-.507.552.552,0,0,1,.437-.172.591.591,0,0,1,.452.172.713.713,0,0,1,.162.507.7.7,0,0,1-.165.5.588.588,0,0,1-.449.175.592.592,0,0,1-.422-.157A.684.684,0,0,1-47.518-.364Zm7.3-3.131a5.332,5.332,0,0,1-.6,2.827,2.016,2.016,0,0,1-1.825.934,2,2,0,0,1-1.793-.956,5.226,5.226,0,0,1-.614-2.8,5.331,5.331,0,0,1,.594-2.832,2.007,2.007,0,0,1,1.813-.924,2.01,2.01,0,0,1,1.805.964A5.2,5.2,0,0,1-40.217-3.5Zm-3.991,0a5.348,5.348,0,0,0,.375,2.32,1.253,1.253,0,0,0,1.194.727,1.254,1.254,0,0,0,1.2-.737,5.389,5.389,0,0,0,.372-2.31,5.353,5.353,0,0,0-.372-2.3,1.254,1.254,0,0,0-1.2-.732,1.254,1.254,0,0,0-1.194.722A5.312,5.312,0,0,0-44.207-3.5Zm9.839,0a5.332,5.332,0,0,1-.6,2.827A2.016,2.016,0,0,1-36.79.266a2,2,0,0,1-1.793-.956A5.226,5.226,0,0,1-39.2-3.5,5.331,5.331,0,0,1-38.6-6.327a2.007,2.007,0,0,1,1.813-.924,2.01,2.01,0,0,1,1.805.964A5.2,5.2,0,0,1-34.368-3.5Zm-3.991,0a5.348,5.348,0,0,0,.375,2.32,1.253,1.253,0,0,0,1.194.727,1.254,1.254,0,0,0,1.2-.737,5.389,5.389,0,0,0,.372-2.31,5.353,5.353,0,0,0-.372-2.3,1.254,1.254,0,0,0-1.2-.732,1.254,1.254,0,0,0-1.194.722A5.312,5.312,0,0,0-38.359-3.5Zm9.839,0a5.332,5.332,0,0,1-.6,2.827,2.016,2.016,0,0,1-1.825.934,2,2,0,0,1-1.793-.956,5.226,5.226,0,0,1-.614-2.8,5.331,5.331,0,0,1,.594-2.832,2.007,2.007,0,0,1,1.813-.924,2.01,2.01,0,0,1,1.805.964A5.2,5.2,0,0,1-28.52-3.5Zm-3.991,0a5.348,5.348,0,0,0,.375,2.32,1.253,1.253,0,0,0,1.194.727,1.254,1.254,0,0,0,1.2-.737,5.389,5.389,0,0,0,.372-2.31,5.353,5.353,0,0,0-.372-2.3,1.254,1.254,0,0,0-1.2-.732,1.254,1.254,0,0,0-1.194.722A5.312,5.312,0,0,0-32.51-3.5Zm9.839,0a5.332,5.332,0,0,1-.6,2.827,2.016,2.016,0,0,1-1.825.934,2,2,0,0,1-1.793-.956A5.226,5.226,0,0,1-27.5-3.5a5.331,5.331,0,0,1,.594-2.832,2.007,2.007,0,0,1,1.813-.924,2.01,2.01,0,0,1,1.805.964A5.2,5.2,0,0,1-22.671-3.5Zm-3.991,0a5.348,5.348,0,0,0,.375,2.32,1.253,1.253,0,0,0,1.194.727,1.254,1.254,0,0,0,1.2-.737A5.389,5.389,0,0,0-23.52-3.5a5.353,5.353,0,0,0-.372-2.3,1.254,1.254,0,0,0-1.2-.732,1.254,1.254,0,0,0-1.194.722A5.312,5.312,0,0,0-26.662-3.5Zm9.839,0a5.332,5.332,0,0,1-.6,2.827,2.016,2.016,0,0,1-1.825.934,2,2,0,0,1-1.793-.956,5.226,5.226,0,0,1-.614-2.8,5.331,5.331,0,0,1,.594-2.832,2.007,2.007,0,0,1,1.813-.924,2.01,2.01,0,0,1,1.805.964A5.2,5.2,0,0,1-16.823-3.5Zm-3.991,0a5.348,5.348,0,0,0,.375,2.32,1.253,1.253,0,0,0,1.194.727,1.254,1.254,0,0,0,1.2-.737,5.389,5.389,0,0,0,.372-2.31,5.353,5.353,0,0,0-.372-2.3,1.254,1.254,0,0,0-1.2-.732,1.254,1.254,0,0,0-1.194.722A5.312,5.312,0,0,0-20.813-3.5Zm9.839,0a5.332,5.332,0,0,1-.6,2.827A2.016,2.016,0,0,1-13.4.266,2,2,0,0,1-15.19-.691,5.226,5.226,0,0,1-15.8-3.5a5.331,5.331,0,0,1,.594-2.832A2.007,2.007,0,0,1-13.4-7.251a2.01,2.01,0,0,1,1.805.964A5.2,5.2,0,0,1-10.974-3.5Zm-3.991,0a5.348,5.348,0,0,0,.375,2.32A1.253,1.253,0,0,0-13.4-.449a1.254,1.254,0,0,0,1.2-.737,5.389,5.389,0,0,0,.372-2.31A5.353,5.353,0,0,0-12.2-5.8a1.254,1.254,0,0,0-1.2-.732,1.254,1.254,0,0,0-1.194.722A5.312,5.312,0,0,0-14.965-3.5Zm9.839,0a5.332,5.332,0,0,1-.6,2.827A2.016,2.016,0,0,1-7.548.266,2,2,0,0,1-9.341-.691a5.226,5.226,0,0,1-.614-2.8,5.331,5.331,0,0,1,.594-2.832,2.007,2.007,0,0,1,1.813-.924,2.01,2.01,0,0,1,1.805.964A5.2,5.2,0,0,1-5.126-3.5Zm-3.991,0a5.348,5.348,0,0,0,.375,2.32,1.253,1.253,0,0,0,1.194.727,1.254,1.254,0,0,0,1.2-.737A5.389,5.389,0,0,0-5.975-3.5a5.353,5.353,0,0,0-.372-2.3,1.254,1.254,0,0,0-1.2-.732,1.254,1.254,0,0,0-1.194.722A5.312,5.312,0,0,0-9.117-3.5Zm9.839,0a5.332,5.332,0,0,1-.6,2.827A2.016,2.016,0,0,1-1.7.266,2,2,0,0,1-3.493-.691a5.226,5.226,0,0,1-.614-2.8,5.331,5.331,0,0,1,.594-2.832A2.007,2.007,0,0,1-1.7-7.251a2.01,2.01,0,0,1,1.805.964A5.2,5.2,0,0,1,.722-3.5Zm-3.991,0a5.348,5.348,0,0,0,.375,2.32A1.253,1.253,0,0,0-1.7-.449,1.254,1.254,0,0,0-.5-1.185,5.389,5.389,0,0,0-.127-3.5,5.353,5.353,0,0,0-.5-5.8a1.254,1.254,0,0,0-1.2-.732,1.254,1.254,0,0,0-1.194.722A5.312,5.312,0,0,0-3.268-3.5Z" transform="translate(358.778 130.65)" fill="#999"/>
    <path id="Path_14625" data-name="Path 14625" d="M-13.42.163h-4.07v-7.3h4.07v.754h-3.221v2.352h3.027v.749h-3.027V-.6h3.221Zm3.866,0H-10.4V-6.385h-2.312v-.754h5.474v.754H-9.554ZM-.6.163h-.849V-3.273H-5.294V.163h-.849v-7.3h.849v3.107h3.846V-7.139H-.6Z" transform="translate(381.09 153.155)" fill="#999"/>
    <path id="Path_14631" data-name="Path 14631" d="M-48.793-3.5a5.332,5.332,0,0,1-.6,2.827,2.016,2.016,0,0,1-1.825.934,2,2,0,0,1-1.793-.956,5.226,5.226,0,0,1-.614-2.8,5.331,5.331,0,0,1,.594-2.832,2.007,2.007,0,0,1,1.813-.924,2.01,2.01,0,0,1,1.805.964A5.2,5.2,0,0,1-48.793-3.5Zm-3.991,0a5.348,5.348,0,0,0,.375,2.32,1.253,1.253,0,0,0,1.194.727,1.254,1.254,0,0,0,1.2-.737,5.389,5.389,0,0,0,.372-2.31,5.353,5.353,0,0,0-.372-2.3,1.254,1.254,0,0,0-1.2-.732,1.254,1.254,0,0,0-1.194.722A5.312,5.312,0,0,0-52.784-3.5Zm5.259,3.131a.744.744,0,0,1,.152-.507.552.552,0,0,1,.437-.172.591.591,0,0,1,.452.172.713.713,0,0,1,.162.507.7.7,0,0,1-.165.5.588.588,0,0,1-.449.175.592.592,0,0,1-.422-.157A.684.684,0,0,1-47.525-.364Zm7.3-3.131a5.332,5.332,0,0,1-.6,2.827,2.016,2.016,0,0,1-1.825.934,2,2,0,0,1-1.793-.956,5.226,5.226,0,0,1-.614-2.8,5.331,5.331,0,0,1,.594-2.832,2.007,2.007,0,0,1,1.813-.924,2.01,2.01,0,0,1,1.805.964A5.2,5.2,0,0,1-40.223-3.5Zm-3.991,0a5.348,5.348,0,0,0,.375,2.32,1.253,1.253,0,0,0,1.194.727,1.254,1.254,0,0,0,1.2-.737,5.389,5.389,0,0,0,.372-2.31,5.353,5.353,0,0,0-.372-2.3,1.254,1.254,0,0,0-1.2-.732,1.254,1.254,0,0,0-1.194.722A5.312,5.312,0,0,0-44.214-3.5Zm9.839,0a5.332,5.332,0,0,1-.6,2.827A2.016,2.016,0,0,1-36.8.266,2,2,0,0,1-38.59-.691,5.226,5.226,0,0,1-39.2-3.5a5.331,5.331,0,0,1,.594-2.832A2.007,2.007,0,0,1-36.8-7.251a2.01,2.01,0,0,1,1.805.964A5.2,5.2,0,0,1-34.375-3.5Zm-3.991,0a5.348,5.348,0,0,0,.375,2.32A1.253,1.253,0,0,0-36.8-.449a1.254,1.254,0,0,0,1.2-.737,5.389,5.389,0,0,0,.372-2.31A5.353,5.353,0,0,0-35.6-5.8a1.254,1.254,0,0,0-1.2-.732,1.254,1.254,0,0,0-1.194.722A5.312,5.312,0,0,0-38.365-3.5Zm9.839,0a5.332,5.332,0,0,1-.6,2.827,2.016,2.016,0,0,1-1.825.934,2,2,0,0,1-1.793-.956,5.226,5.226,0,0,1-.614-2.8,5.331,5.331,0,0,1,.594-2.832,2.007,2.007,0,0,1,1.813-.924,2.01,2.01,0,0,1,1.805.964A5.2,5.2,0,0,1-28.526-3.5Zm-3.991,0a5.348,5.348,0,0,0,.375,2.32,1.253,1.253,0,0,0,1.194.727,1.254,1.254,0,0,0,1.2-.737,5.389,5.389,0,0,0,.372-2.31,5.353,5.353,0,0,0-.372-2.3,1.254,1.254,0,0,0-1.2-.732,1.254,1.254,0,0,0-1.194.722A5.312,5.312,0,0,0-32.517-3.5Zm9.839,0a5.332,5.332,0,0,1-.6,2.827A2.016,2.016,0,0,1-25.1.266a2,2,0,0,1-1.793-.956,5.226,5.226,0,0,1-.614-2.8,5.331,5.331,0,0,1,.594-2.832A2.007,2.007,0,0,1-25.1-7.251a2.01,2.01,0,0,1,1.805.964A5.2,5.2,0,0,1-22.678-3.5Zm-3.991,0a5.348,5.348,0,0,0,.375,2.32A1.253,1.253,0,0,0-25.1-.449a1.254,1.254,0,0,0,1.2-.737,5.389,5.389,0,0,0,.372-2.31A5.353,5.353,0,0,0-23.9-5.8a1.254,1.254,0,0,0-1.2-.732,1.254,1.254,0,0,0-1.194.722A5.312,5.312,0,0,0-26.668-3.5Zm9.839,0a5.332,5.332,0,0,1-.6,2.827,2.016,2.016,0,0,1-1.825.934,2,2,0,0,1-1.793-.956,5.226,5.226,0,0,1-.614-2.8,5.331,5.331,0,0,1,.594-2.832,2.007,2.007,0,0,1,1.813-.924,2.01,2.01,0,0,1,1.805.964A5.2,5.2,0,0,1-16.829-3.5Zm-3.991,0a5.348,5.348,0,0,0,.375,2.32,1.253,1.253,0,0,0,1.194.727,1.254,1.254,0,0,0,1.2-.737,5.389,5.389,0,0,0,.372-2.31,5.353,5.353,0,0,0-.372-2.3,1.254,1.254,0,0,0-1.2-.732,1.254,1.254,0,0,0-1.194.722A5.312,5.312,0,0,0-20.82-3.5Zm9.839,0a5.332,5.332,0,0,1-.6,2.827A2.016,2.016,0,0,1-13.4.266,2,2,0,0,1-15.2-.691a5.226,5.226,0,0,1-.614-2.8,5.331,5.331,0,0,1,.594-2.832A2.007,2.007,0,0,1-13.4-7.251a2.01,2.01,0,0,1,1.805.964A5.2,5.2,0,0,1-10.981-3.5Zm-3.991,0a5.348,5.348,0,0,0,.375,2.32A1.253,1.253,0,0,0-13.4-.449a1.254,1.254,0,0,0,1.2-.737A5.389,5.389,0,0,0-11.83-3.5,5.353,5.353,0,0,0-12.2-5.8a1.254,1.254,0,0,0-1.2-.732A1.254,1.254,0,0,0-14.6-5.81,5.312,5.312,0,0,0-14.972-3.5Zm9.839,0a5.332,5.332,0,0,1-.6,2.827A2.016,2.016,0,0,1-7.555.266,2,2,0,0,1-9.348-.691a5.226,5.226,0,0,1-.614-2.8,5.331,5.331,0,0,1,.594-2.832,2.007,2.007,0,0,1,1.813-.924,2.01,2.01,0,0,1,1.805.964A5.2,5.2,0,0,1-5.133-3.5Zm-3.991,0a5.348,5.348,0,0,0,.375,2.32,1.253,1.253,0,0,0,1.194.727,1.254,1.254,0,0,0,1.2-.737A5.389,5.389,0,0,0-5.982-3.5a5.353,5.353,0,0,0-.372-2.3,1.254,1.254,0,0,0-1.2-.732,1.254,1.254,0,0,0-1.194.722A5.312,5.312,0,0,0-9.123-3.5Zm9.839,0a5.332,5.332,0,0,1-.6,2.827A2.016,2.016,0,0,1-1.706.266,2,2,0,0,1-3.5-.691a5.226,5.226,0,0,1-.614-2.8,5.331,5.331,0,0,1,.594-2.832,2.007,2.007,0,0,1,1.813-.924A2.01,2.01,0,0,1,.1-6.287,5.2,5.2,0,0,1,.716-3.5Zm-3.991,0A5.348,5.348,0,0,0-2.9-1.175a1.253,1.253,0,0,0,1.194.727,1.254,1.254,0,0,0,1.2-.737A5.389,5.389,0,0,0-.133-3.5,5.353,5.353,0,0,0-.505-5.8a1.254,1.254,0,0,0-1.2-.732A1.254,1.254,0,0,0-2.9-5.81,5.312,5.312,0,0,0-3.275-3.5Z" transform="translate(358.785 153.153)" fill="#999"/>
    <path id="Path_14626" data-name="Path 14626" d="M-13.42.163h-4.07v-7.3h4.07v.754h-3.221v2.352h3.027v.749h-3.027V-.6h3.221Zm3.866,0H-10.4V-6.385h-2.312v-.754h5.474v.754H-9.554ZM-.6.163h-.849V-3.273H-5.294V.163h-.849v-7.3h.849v3.107h3.846V-7.139H-.6Z" transform="translate(381.09 175.658)" fill="#4cbf00"/>
    <path id="Path_14632" data-name="Path 14632" d="M-48.482-1.512h-1.084V.166h-.794V-1.512h-3.551v-.724l3.466-4.939h.879v4.909h1.084Zm-1.878-.754V-4.694q0-.714.05-1.613h-.04a7.5,7.5,0,0,1-.449.794l-2.282,3.246Zm2.842,1.9a.744.744,0,0,1,.152-.507.552.552,0,0,1,.437-.172.591.591,0,0,1,.452.172.713.713,0,0,1,.162.507.7.7,0,0,1-.165.5.588.588,0,0,1-.449.175.592.592,0,0,1-.422-.157A.684.684,0,0,1-47.518-.364Zm7.3-3.131a5.332,5.332,0,0,1-.6,2.827,2.016,2.016,0,0,1-1.825.934,2,2,0,0,1-1.793-.956,5.226,5.226,0,0,1-.614-2.8,5.331,5.331,0,0,1,.594-2.832,2.007,2.007,0,0,1,1.813-.924,2.01,2.01,0,0,1,1.805.964A5.2,5.2,0,0,1-40.217-3.5Zm-3.991,0a5.348,5.348,0,0,0,.375,2.32,1.253,1.253,0,0,0,1.194.727,1.254,1.254,0,0,0,1.2-.737,5.389,5.389,0,0,0,.372-2.31,5.353,5.353,0,0,0-.372-2.3,1.254,1.254,0,0,0-1.2-.732,1.254,1.254,0,0,0-1.194.722A5.312,5.312,0,0,0-44.207-3.5Zm9.839,0a5.332,5.332,0,0,1-.6,2.827A2.016,2.016,0,0,1-36.79.266a2,2,0,0,1-1.793-.956A5.226,5.226,0,0,1-39.2-3.5,5.331,5.331,0,0,1-38.6-6.327a2.007,2.007,0,0,1,1.813-.924,2.01,2.01,0,0,1,1.805.964A5.2,5.2,0,0,1-34.368-3.5Zm-3.991,0a5.348,5.348,0,0,0,.375,2.32,1.253,1.253,0,0,0,1.194.727,1.254,1.254,0,0,0,1.2-.737,5.389,5.389,0,0,0,.372-2.31,5.353,5.353,0,0,0-.372-2.3,1.254,1.254,0,0,0-1.2-.732,1.254,1.254,0,0,0-1.194.722A5.312,5.312,0,0,0-38.359-3.5Zm9.839,0a5.332,5.332,0,0,1-.6,2.827,2.016,2.016,0,0,1-1.825.934,2,2,0,0,1-1.793-.956,5.226,5.226,0,0,1-.614-2.8,5.331,5.331,0,0,1,.594-2.832,2.007,2.007,0,0,1,1.813-.924,2.01,2.01,0,0,1,1.805.964A5.2,5.2,0,0,1-28.52-3.5Zm-3.991,0a5.348,5.348,0,0,0,.375,2.32,1.253,1.253,0,0,0,1.194.727,1.254,1.254,0,0,0,1.2-.737,5.389,5.389,0,0,0,.372-2.31,5.353,5.353,0,0,0-.372-2.3,1.254,1.254,0,0,0-1.2-.732,1.254,1.254,0,0,0-1.194.722A5.312,5.312,0,0,0-32.51-3.5Zm9.839,0a5.332,5.332,0,0,1-.6,2.827,2.016,2.016,0,0,1-1.825.934,2,2,0,0,1-1.793-.956A5.226,5.226,0,0,1-27.5-3.5a5.331,5.331,0,0,1,.594-2.832,2.007,2.007,0,0,1,1.813-.924,2.01,2.01,0,0,1,1.805.964A5.2,5.2,0,0,1-22.671-3.5Zm-3.991,0a5.348,5.348,0,0,0,.375,2.32,1.253,1.253,0,0,0,1.194.727,1.254,1.254,0,0,0,1.2-.737A5.389,5.389,0,0,0-23.52-3.5a5.353,5.353,0,0,0-.372-2.3,1.254,1.254,0,0,0-1.2-.732,1.254,1.254,0,0,0-1.194.722A5.312,5.312,0,0,0-26.662-3.5Zm9.839,0a5.332,5.332,0,0,1-.6,2.827,2.016,2.016,0,0,1-1.825.934,2,2,0,0,1-1.793-.956,5.226,5.226,0,0,1-.614-2.8,5.331,5.331,0,0,1,.594-2.832,2.007,2.007,0,0,1,1.813-.924,2.01,2.01,0,0,1,1.805.964A5.2,5.2,0,0,1-16.823-3.5Zm-3.991,0a5.348,5.348,0,0,0,.375,2.32,1.253,1.253,0,0,0,1.194.727,1.254,1.254,0,0,0,1.2-.737,5.389,5.389,0,0,0,.372-2.31,5.353,5.353,0,0,0-.372-2.3,1.254,1.254,0,0,0-1.2-.732,1.254,1.254,0,0,0-1.194.722A5.312,5.312,0,0,0-20.813-3.5Zm9.839,0a5.332,5.332,0,0,1-.6,2.827A2.016,2.016,0,0,1-13.4.266,2,2,0,0,1-15.19-.691,5.226,5.226,0,0,1-15.8-3.5a5.331,5.331,0,0,1,.594-2.832A2.007,2.007,0,0,1-13.4-7.251a2.01,2.01,0,0,1,1.805.964A5.2,5.2,0,0,1-10.974-3.5Zm-3.991,0a5.348,5.348,0,0,0,.375,2.32A1.253,1.253,0,0,0-13.4-.449a1.254,1.254,0,0,0,1.2-.737,5.389,5.389,0,0,0,.372-2.31A5.353,5.353,0,0,0-12.2-5.8a1.254,1.254,0,0,0-1.2-.732,1.254,1.254,0,0,0-1.194.722A5.312,5.312,0,0,0-14.965-3.5Zm9.839,0a5.332,5.332,0,0,1-.6,2.827A2.016,2.016,0,0,1-7.548.266,2,2,0,0,1-9.341-.691a5.226,5.226,0,0,1-.614-2.8,5.331,5.331,0,0,1,.594-2.832,2.007,2.007,0,0,1,1.813-.924,2.01,2.01,0,0,1,1.805.964A5.2,5.2,0,0,1-5.126-3.5Zm-3.991,0a5.348,5.348,0,0,0,.375,2.32,1.253,1.253,0,0,0,1.194.727,1.254,1.254,0,0,0,1.2-.737A5.389,5.389,0,0,0-5.975-3.5a5.353,5.353,0,0,0-.372-2.3,1.254,1.254,0,0,0-1.2-.732,1.254,1.254,0,0,0-1.194.722A5.312,5.312,0,0,0-9.117-3.5Zm9.839,0a5.332,5.332,0,0,1-.6,2.827A2.016,2.016,0,0,1-1.7.266,2,2,0,0,1-3.493-.691a5.226,5.226,0,0,1-.614-2.8,5.331,5.331,0,0,1,.594-2.832A2.007,2.007,0,0,1-1.7-7.251a2.01,2.01,0,0,1,1.805.964A5.2,5.2,0,0,1,.722-3.5Zm-3.991,0a5.348,5.348,0,0,0,.375,2.32A1.253,1.253,0,0,0-1.7-.449,1.254,1.254,0,0,0-.5-1.185,5.389,5.389,0,0,0-.127-3.5,5.353,5.353,0,0,0-.5-5.8a1.254,1.254,0,0,0-1.2-.732,1.254,1.254,0,0,0-1.194.722A5.312,5.312,0,0,0-3.268-3.5Z" transform="translate(358.778 175.655)" fill="#4cbf00"/>
    <path id="Path_14642" data-name="Path 14642" d="M5.16-2.069A1.42,1.42,0,0,1,4.65-.948a2.623,2.623,0,0,1-1.423.557V.768H2.582V-.346A6.583,6.583,0,0,1,1.5-.433,3.408,3.408,0,0,1,.64-.676v-.779a4.9,4.9,0,0,0,.956.3,4.7,4.7,0,0,0,.986.117v-2.2a3.455,3.455,0,0,1-1.436-.754A1.535,1.535,0,0,1,.735-5.1a1.332,1.332,0,0,1,.507-1.074,2.468,2.468,0,0,1,1.341-.509v-.909h.644v.9A5.069,5.069,0,0,1,5-6.319l-.26.654a5.072,5.072,0,0,0-1.513-.35v2.168A5.676,5.676,0,0,1,4.4-3.36a1.652,1.652,0,0,1,.574.544A1.423,1.423,0,0,1,5.16-2.069ZM4.311-2a.787.787,0,0,0-.222-.582,2.371,2.371,0,0,0-.862-.442v1.943Q4.311-1.235,4.311-2Zm-2.732-3.1A.834.834,0,0,0,1.8-4.5a2.154,2.154,0,0,0,.779.435V-5.995a1.43,1.43,0,0,0-.749.312A.749.749,0,0,0,1.579-5.106ZM9.4.173H8.6v-5.2q0-.649.04-1.229-.1.1-.235.22t-1.189.974l-.44-.569L8.706-7.128h.7Zm7.616-3.661a5.332,5.332,0,0,1-.6,2.827A2.016,2.016,0,0,1,14.6.273a2,2,0,0,1-1.793-.956,5.226,5.226,0,0,1-.614-2.8,5.331,5.331,0,0,1,.594-2.832A2.007,2.007,0,0,1,14.6-7.243a2.01,2.01,0,0,1,1.805.964A5.2,5.2,0,0,1,17.021-3.488Zm-3.991,0a5.348,5.348,0,0,0,.375,2.32A1.253,1.253,0,0,0,14.6-.441a1.254,1.254,0,0,0,1.2-.737,5.389,5.389,0,0,0,.372-2.31,5.353,5.353,0,0,0-.372-2.3,1.254,1.254,0,0,0-1.2-.732,1.254,1.254,0,0,0-1.194.722A5.312,5.312,0,0,0,13.031-3.488ZM26.705-7.128V-2.4a2.574,2.574,0,0,1-.754,1.963,2.892,2.892,0,0,1-2.073.714,2.765,2.765,0,0,1-2.04-.719,2.667,2.667,0,0,1-.722-1.978v-4.7h.849v4.765a1.877,1.877,0,0,0,.5,1.4,2.015,2.015,0,0,0,1.468.489,1.943,1.943,0,0,0,1.423-.492,1.893,1.893,0,0,0,.5-1.411V-7.128Zm6.053,5.359a1.791,1.791,0,0,1-.7,1.5,3.032,3.032,0,0,1-1.9.539,4.754,4.754,0,0,1-2-.335V-.88a5.26,5.26,0,0,0,.979.3,5.15,5.15,0,0,0,1.049.11A2.116,2.116,0,0,0,31.47-.793a1.057,1.057,0,0,0,.43-.9,1.151,1.151,0,0,0-.152-.622,1.415,1.415,0,0,0-.509-.447,7.127,7.127,0,0,0-1.086-.464A3.467,3.467,0,0,1,28.7-4.087a1.908,1.908,0,0,1-.437-1.3,1.621,1.621,0,0,1,.634-1.343,2.636,2.636,0,0,1,1.678-.5,4.946,4.946,0,0,1,2,.4l-.265.739a4.526,4.526,0,0,0-1.758-.38,1.7,1.7,0,0,0-1.054.29.955.955,0,0,0-.38.8,1.232,1.232,0,0,0,.14.622,1.317,1.317,0,0,0,.472.444,5.864,5.864,0,0,0,1.016.447,4.024,4.024,0,0,1,1.581.879A1.729,1.729,0,0,1,32.759-1.769ZM40.08-3.547A3.686,3.686,0,0,1,39.1-.783a3.883,3.883,0,0,1-2.824.956H34.252v-7.3h2.237a3.579,3.579,0,0,1,2.647.944A3.565,3.565,0,0,1,40.08-3.547Zm-.9.03a2.94,2.94,0,0,0-.717-2.153,2.872,2.872,0,0,0-2.13-.724H35.1V-.561h1.034a3.143,3.143,0,0,0,2.282-.747A2.956,2.956,0,0,0,39.181-3.517Z" transform="translate(166.706 212.47)" fill="#999"/>
    <path id="Path_14635" data-name="Path 14635" d="M0,0H122.742V22.5H0Z" transform="translate(166.691 295.494)" fill="#666"/>
    <path id="Path_14618" data-name="Path 14618" d="M0,0H122.742V22.5H0Z" transform="translate(299.662 295.494)" fill="#666"/>
    <path id="Path_14640" data-name="Path 14640" d="M-11.832.2V-8.856h1.215l4.124,6.468V-8.856h1.522V.2H-6.186L-10.31-6.266V.2ZM-.761.264a4.079,4.079,0,0,1-1.7-.295,1.779,1.779,0,0,1-.914-1.025,5.821,5.821,0,0,1-.282-2.031,6.16,6.16,0,0,1,.27-2.056,1.738,1.738,0,0,1,.9-1.025A4.035,4.035,0,0,1-.8-6.463a4.924,4.924,0,0,1,1.516.19,1.417,1.417,0,0,1,.835.675,2.9,2.9,0,0,1,.264,1.369,1.8,1.8,0,0,1-.245,1,1.338,1.338,0,0,1-.706.534,3.322,3.322,0,0,1-1.086.16H-2.148a3.1,3.1,0,0,0,.166.976.911.911,0,0,0,.516.522,2.924,2.924,0,0,0,1.1.16H1.621v.9q-.5.1-1.062.172A10.248,10.248,0,0,1-.761.264Zm-1.4-3.719H-.368a.99.99,0,0,0,.632-.166.753.753,0,0,0,.2-.608A1.531,1.531,0,0,0,.344-4.9a.7.7,0,0,0-.405-.35,2.164,2.164,0,0,0-.736-.1,1.715,1.715,0,0,0-.81.16.923.923,0,0,0-.423.571A4.118,4.118,0,0,0-2.16-3.455ZM6.935.2,2.308-6.377H3.854L8.482.2ZM2.308.2,4.836-3.554,5.389-2.13,3.854.2ZM5.953-2.6,5.315-3.86l1.62-2.5,1.547-.012ZM11.808.2a2.736,2.736,0,0,1-1.166-.215A1.292,1.292,0,0,1,9.985-.73,3.47,3.47,0,0,1,9.8-2.056l.049-3.093H8.813v-.982l1.08-.245.221-1.841H11.3v1.841h1.669v1.227H11.3v3.081a1.839,1.839,0,0,0,.061.522.749.749,0,0,0,.178.319.69.69,0,0,0,.252.166A1.086,1.086,0,0,0,12.078-1l.822.086V.2Z" transform="translate(227.792 310.635)" fill="#fff"/>
    <path id="Path_14627" data-name="Path 14627" d="M-14.507.283A4.856,4.856,0,0,1-15.913.1a2.1,2.1,0,0,1-1.019-.675,3.32,3.32,0,0,1-.62-1.4,11,11,0,0,1-.209-2.381,10.046,10.046,0,0,1,.215-2.283,3.371,3.371,0,0,1,.638-1.4,2.214,2.214,0,0,1,1.037-.7,4.587,4.587,0,0,1,1.4-.2,8.769,8.769,0,0,1,1.049.061q.509.061.945.147a7.6,7.6,0,0,1,.755.184v1.166a5.35,5.35,0,0,0-.589-.092q-.381-.043-.859-.074t-.994-.031a3.157,3.157,0,0,0-.964.129,1.243,1.243,0,0,0-.644.473,2.4,2.4,0,0,0-.356.982,10.064,10.064,0,0,0-.11,1.657,10.545,10.545,0,0,0,.1,1.645A2.6,2.6,0,0,0-15.8-1.7a1.174,1.174,0,0,0,.626.485,3.161,3.161,0,0,0,1,.135q.921,0,1.51-.043t.945-.092V-.049A7.258,7.258,0,0,1-12.5.123q-.436.074-.933.117T-14.507.283Zm5.437,0a1.678,1.678,0,0,1-1.2-.442,1.594,1.594,0,0,1-.466-1.215v-.552a1.605,1.605,0,0,1,.522-1.24,2.307,2.307,0,0,1,1.6-.479h1.878v-.577A1.228,1.228,0,0,0-6.861-4.8a.768.768,0,0,0-.442-.35,3.011,3.011,0,0,0-.97-.117H-10.26v-.884a9.6,9.6,0,0,1,1.068-.215,10,10,0,0,1,1.461-.092,3.916,3.916,0,0,1,1.375.19A1.6,1.6,0,0,1-5.5-5.6,2.418,2.418,0,0,1-5.216-4.32V.209H-6.406L-6.664-.5a2.038,2.038,0,0,1-.307.2,6,6,0,0,1-.552.264,4.37,4.37,0,0,1-.73.233A3.618,3.618,0,0,1-9.07.283Zm.736-1.068a1.765,1.765,0,0,0,.362-.043q.2-.043.411-.1t.387-.11q.178-.055.295-.1t.141-.061V-2.921l-1.424.074a1.309,1.309,0,0,0-.816.295.868.868,0,0,0-.252.651v.27a.87.87,0,0,0,.129.5.671.671,0,0,0,.331.264A1.5,1.5,0,0,0-8.333-.785Zm4.627.994V-6.37h1.24l.282.687A4.567,4.567,0,0,1-1.2-6.235,3.086,3.086,0,0,1,.013-6.48a2.071,2.071,0,0,1,1.215.313,1.717,1.717,0,0,1,.632.841,3.379,3.379,0,0,1,.19,1.154V.209H.529v-4.2a1.233,1.233,0,0,0-.135-.6.957.957,0,0,0-.374-.38,1.17,1.17,0,0,0-.583-.135,2.742,2.742,0,0,0-.6.061,2.256,2.256,0,0,0-.522.184,4.7,4.7,0,0,0-.5.295V.209ZM6.089.283A3.669,3.669,0,0,1,5,.129,2.041,2.041,0,0,1,4.137-.4a2.489,2.489,0,0,1-.571-1.025,5.579,5.579,0,0,1-.2-1.632,6.165,6.165,0,0,1,.19-1.669A2.518,2.518,0,0,1,4.1-5.768,1.922,1.922,0,0,1,4.966-6.3a4.023,4.023,0,0,1,1.16-.153q.552,0,1.117.055a7.274,7.274,0,0,1,1.129.2v.871H6.58a2.145,2.145,0,0,0-.957.184,1.167,1.167,0,0,0-.552.675,4.2,4.2,0,0,0-.184,1.412A3.986,3.986,0,0,0,5.07-1.675a1.081,1.081,0,0,0,.558.638,2.4,2.4,0,0,0,.964.166H8.47v.859a6.279,6.279,0,0,1-.687.153q-.393.068-.829.1T6.089.283ZM12.275.271a4.079,4.079,0,0,1-1.7-.295,1.779,1.779,0,0,1-.914-1.025A5.821,5.821,0,0,1,9.378-3.08a6.16,6.16,0,0,1,.27-2.056,1.738,1.738,0,0,1,.9-1.025,4.035,4.035,0,0,1,1.694-.295,4.924,4.924,0,0,1,1.516.19,1.417,1.417,0,0,1,.835.675,2.9,2.9,0,0,1,.264,1.369,1.8,1.8,0,0,1-.245,1,1.338,1.338,0,0,1-.706.534,3.322,3.322,0,0,1-1.086.16H10.888a3.1,3.1,0,0,0,.166.976.911.911,0,0,0,.516.522,2.924,2.924,0,0,0,1.1.16h1.988v.9q-.5.1-1.062.172A10.248,10.248,0,0,1,12.275.271Zm-1.4-3.719h1.792a.99.99,0,0,0,.632-.166.753.753,0,0,0,.2-.608A1.531,1.531,0,0,0,13.38-4.9a.7.7,0,0,0-.405-.35,2.164,2.164,0,0,0-.736-.1,1.715,1.715,0,0,0-.81.16A.923.923,0,0,0,11-4.621,4.118,4.118,0,0,0,10.876-3.449ZM18.154.234A2.389,2.389,0,0,1,17.068.013a1.4,1.4,0,0,1-.651-.687,3,3,0,0,1-.215-1.24V-9.156h1.522v7.033a2.03,2.03,0,0,0,.092.687.661.661,0,0,0,.264.35,1.116,1.116,0,0,0,.417.141l.552.074v1.1Z" transform="translate(360.627 310.628)" fill="#fff"/>
    <path id="Path_14619" data-name="Path 14619" d="M.41-2.189v-.759H2.862v.759ZM12.771-3.547A3.686,3.686,0,0,1,11.79-.783,3.883,3.883,0,0,1,8.966.174H6.943v-7.3H9.18a3.579,3.579,0,0,1,2.647.944A3.565,3.565,0,0,1,12.771-3.547Zm-.9.03a2.94,2.94,0,0,0-.717-2.153,2.872,2.872,0,0,0-2.13-.724H7.792V-.561H8.826a3.143,3.143,0,0,0,2.282-.747A2.956,2.956,0,0,0,11.872-3.517ZM19-2.568a3.02,3.02,0,0,1-.674,2.09,2.375,2.375,0,0,1-1.863.752,2.467,2.467,0,0,1-1.3-.345,2.274,2.274,0,0,1-.879-.989,3.446,3.446,0,0,1-.31-1.508,3.015,3.015,0,0,1,.669-2.085A2.367,2.367,0,0,1,16.5-5.4a2.316,2.316,0,0,1,1.825.764A3.007,3.007,0,0,1,19-2.568Zm-4.17,0a2.6,2.6,0,0,0,.42,1.6,1.456,1.456,0,0,0,1.234.549,1.466,1.466,0,0,0,1.236-.547,2.585,2.585,0,0,0,.422-1.6,2.543,2.543,0,0,0-.422-1.586A1.483,1.483,0,0,0,16.472-4.7a1.459,1.459,0,0,0-1.229.534A2.572,2.572,0,0,0,14.829-2.568ZM26.855.174V-3.367a1.429,1.429,0,0,0-.3-1A1.241,1.241,0,0,0,25.6-4.7a1.573,1.573,0,0,0-1.259.464,2.345,2.345,0,0,0-.4,1.533V.174H23.11V-5.3h.674l.135.749h.04a1.693,1.693,0,0,1,.714-.627A2.321,2.321,0,0,1,25.7-5.4a2.079,2.079,0,0,1,1.488.477,2.03,2.03,0,0,1,.5,1.526V.174Zm7.257-2.742a3.02,3.02,0,0,1-.674,2.09,2.375,2.375,0,0,1-1.863.752,2.467,2.467,0,0,1-1.3-.345,2.274,2.274,0,0,1-.879-.989,3.446,3.446,0,0,1-.31-1.508,3.015,3.015,0,0,1,.669-2.085A2.367,2.367,0,0,1,31.61-5.4a2.316,2.316,0,0,1,1.825.764A3.007,3.007,0,0,1,34.112-2.568Zm-4.17,0a2.6,2.6,0,0,0,.42,1.6A1.456,1.456,0,0,0,31.6-.421a1.466,1.466,0,0,0,1.236-.547,2.585,2.585,0,0,0,.422-1.6,2.543,2.543,0,0,0-.422-1.586A1.483,1.483,0,0,0,31.585-4.7a1.459,1.459,0,0,0-1.229.534A2.572,2.572,0,0,0,29.942-2.568ZM37.334-.411a2.708,2.708,0,0,0,.425-.032,2.748,2.748,0,0,0,.325-.067V.124a1.516,1.516,0,0,1-.4.107,2.982,2.982,0,0,1-.472.042q-1.588,0-1.588-1.673V-4.656h-.784v-.4l.784-.345.35-1.169h.479V-5.3h1.588v.644H36.455v3.221a1.108,1.108,0,0,0,.235.759A.817.817,0,0,0,37.334-.411ZM46.3.174l-1-3.211q-.095-.295-.355-1.338h-.04q-.2.874-.35,1.348L43.522.174h-.959L41.069-5.3h.869l.807,3.141a12.728,12.728,0,0,1,.317,1.453h.04q.055-.285.177-.737t.212-.717l1-3.141h.9l.979,3.141a10.6,10.6,0,0,1,.38,1.443h.04A5.294,5.294,0,0,1,46.9-1.27q.087-.375,1.041-4.03H48.8L47.287.174Zm4.315,0H49.79V-5.3h.829Zm-.9-6.957a.551.551,0,0,1,.14-.417.489.489,0,0,1,.35-.132.488.488,0,0,1,.345.135.541.541,0,0,1,.145.415.549.549,0,0,1-.145.417.484.484,0,0,1-.345.137.479.479,0,0,1-.35-.137A.561.561,0,0,1,49.72-6.784ZM54.145-.411a2.708,2.708,0,0,0,.425-.032,2.748,2.748,0,0,0,.325-.067V.124a1.516,1.516,0,0,1-.4.107,2.982,2.982,0,0,1-.472.042q-1.588,0-1.588-1.673V-4.656h-.784v-.4l.784-.345.35-1.169h.479V-5.3h1.588v.644H53.266v3.221a1.108,1.108,0,0,0,.235.759A.817.817,0,0,0,54.145-.411Zm5.589.584V-3.367a1.429,1.429,0,0,0-.3-1,1.241,1.241,0,0,0-.954-.33,1.563,1.563,0,0,0-1.261.469,2.378,2.378,0,0,0-.4,1.538V.174h-.829V-7.6h.829v2.352a5.125,5.125,0,0,1-.04.7h.05a1.691,1.691,0,0,1,.7-.622,2.265,2.265,0,0,1,1.031-.227,2.112,2.112,0,0,1,1.506.477,2.009,2.009,0,0,1,.5,1.516V.174Zm6.258-.734h-.045a1.948,1.948,0,0,1-1.718.834,2.032,2.032,0,0,1-1.671-.734,3.232,3.232,0,0,1-.6-2.088,3.286,3.286,0,0,1,.6-2.1A2.017,2.017,0,0,1,64.228-5.4a1.991,1.991,0,0,1,1.708.809H66l-.035-.395-.02-.385V-7.6h.829V.174H66.1Zm-1.658.14a1.509,1.509,0,0,0,1.231-.462,2.334,2.334,0,0,0,.382-1.491v-.175a2.747,2.747,0,0,0-.387-1.661,1.47,1.47,0,0,0-1.236-.5,1.269,1.269,0,0,0-1.116.567,2.819,2.819,0,0,0-.387,1.6A2.7,2.7,0,0,0,63.2-.955,1.3,1.3,0,0,0,64.333-.421Zm6.7-4.979a3.244,3.244,0,0,1,.654.06l-.115.769a2.824,2.824,0,0,0-.6-.075,1.459,1.459,0,0,0-1.136.539,1.967,1.967,0,0,0-.472,1.343V.174h-.829V-5.3h.684l.095,1.014h.04a2.406,2.406,0,0,1,.734-.824A1.653,1.653,0,0,1,71.031-5.4ZM76.075.174,75.91-.606h-.04a2.3,2.3,0,0,1-.817.7,2.489,2.489,0,0,1-1.016.182,1.828,1.828,0,0,1-1.276-.42A1.53,1.53,0,0,1,72.3-1.34Q72.3-3,74.951-3.078l.929-.03v-.34A1.388,1.388,0,0,0,75.6-4.4a1.14,1.14,0,0,0-.887-.307,3.612,3.612,0,0,0-1.548.42l-.255-.634a3.9,3.9,0,0,1,.887-.345,3.839,3.839,0,0,1,.966-.125,2.085,2.085,0,0,1,1.451.435,1.814,1.814,0,0,1,.472,1.393V.174ZM74.2-.411a1.683,1.683,0,0,0,1.216-.425,1.57,1.57,0,0,0,.442-1.189v-.494l-.829.035a3.016,3.016,0,0,0-1.426.307.926.926,0,0,0-.437.847.854.854,0,0,0,.272.684A1.13,1.13,0,0,0,74.2-.411Zm8.665.584-1-3.211q-.095-.295-.355-1.338h-.04q-.2.874-.35,1.348L80.085.174h-.959L77.633-5.3H78.5l.807,3.141a12.727,12.727,0,0,1,.317,1.453h.04q.055-.285.177-.737t.212-.717l1-3.141h.9l.979,3.141a10.6,10.6,0,0,1,.38,1.443h.04a5.3,5.3,0,0,1,.107-.554q.087-.375,1.041-4.03h.859L83.851.174Zm7.911-.584A2.708,2.708,0,0,0,91.2-.443a2.748,2.748,0,0,0,.325-.067V.124a1.516,1.516,0,0,1-.4.107,2.982,2.982,0,0,1-.472.042Q89.07.273,89.07-1.4V-4.656h-.784v-.4L89.07-5.4l.35-1.169H89.9V-5.3h1.588v.644H89.9v3.221a1.108,1.108,0,0,0,.235.759A.817.817,0,0,0,90.778-.411Zm6.568-2.158a3.02,3.02,0,0,1-.674,2.09,2.375,2.375,0,0,1-1.863.752,2.467,2.467,0,0,1-1.3-.345,2.274,2.274,0,0,1-.879-.989,3.446,3.446,0,0,1-.31-1.508,3.015,3.015,0,0,1,.669-2.085A2.367,2.367,0,0,1,94.844-5.4a2.316,2.316,0,0,1,1.825.764A3.007,3.007,0,0,1,97.346-2.568Zm-4.17,0a2.6,2.6,0,0,0,.42,1.6,1.456,1.456,0,0,0,1.234.549,1.466,1.466,0,0,0,1.236-.547,2.585,2.585,0,0,0,.422-1.6,2.543,2.543,0,0,0-.422-1.586A1.483,1.483,0,0,0,94.819-4.7a1.459,1.459,0,0,0-1.229.534A2.572,2.572,0,0,0,93.176-2.568Zm6.443-.06a9.751,9.751,0,0,1,.654-.8L102.041-5.3h.984l-2.217,2.332L103.18.174h-1l-1.933-2.587-.624.539V.174H98.8V-7.6h.819v4.12q0,.275-.04.849Zm6.862,2.9a2.515,2.515,0,0,1-1.915-.739,2.862,2.862,0,0,1-.7-2.053,3.173,3.173,0,0,1,.652-2.1,2.165,2.165,0,0,1,1.751-.779,2.064,2.064,0,0,1,1.628.677,2.594,2.594,0,0,1,.6,1.785v.524h-3.771A2.17,2.17,0,0,0,105.21-.95a1.684,1.684,0,0,0,1.3.5,4.409,4.409,0,0,0,1.748-.37v.739a4.388,4.388,0,0,1-.832.272A4.673,4.673,0,0,1,106.481.273Zm-.225-4.979a1.354,1.354,0,0,0-1.051.43,1.98,1.98,0,0,0-.462,1.189H107.6a1.823,1.823,0,0,0-.35-1.2A1.231,1.231,0,0,0,106.256-4.706Zm7.4,4.88V-3.367a1.429,1.429,0,0,0-.3-1,1.241,1.241,0,0,0-.954-.33,1.573,1.573,0,0,0-1.259.464,2.345,2.345,0,0,0-.4,1.533V.174h-.829V-5.3h.674l.135.749h.04a1.693,1.693,0,0,1,.714-.627,2.32,2.32,0,0,1,1.024-.222,2.079,2.079,0,0,1,1.488.477,2.03,2.03,0,0,1,.5,1.526V.174Zm6.063-1.493a1.371,1.371,0,0,1-.569,1.179,2.676,2.676,0,0,1-1.6.415,3.475,3.475,0,0,1-1.7-.345V-.84a4.107,4.107,0,0,0,.847.315,3.535,3.535,0,0,0,.872.115,1.976,1.976,0,0,0,1-.207.685.685,0,0,0,.35-.632.686.686,0,0,0-.277-.547,4.36,4.36,0,0,0-1.081-.537,5.863,5.863,0,0,1-1.086-.5,1.484,1.484,0,0,1-.479-.482,1.257,1.257,0,0,1-.157-.644,1.228,1.228,0,0,1,.544-1.056,2.537,2.537,0,0,1,1.493-.387,4.369,4.369,0,0,1,1.728.36l-.295.674a3.967,3.967,0,0,0-1.493-.34,1.718,1.718,0,0,0-.889.185.571.571,0,0,0-.3.509.62.62,0,0,0,.112.375,1.109,1.109,0,0,0,.362.295,8.091,8.091,0,0,0,.959.4,3.582,3.582,0,0,1,1.316.714A1.259,1.259,0,0,1,119.716-1.32Zm7.731.759H127.4a1.948,1.948,0,0,1-1.718.834,2.032,2.032,0,0,1-1.671-.734,3.232,3.232,0,0,1-.6-2.088,3.286,3.286,0,0,1,.6-2.1,2.017,2.017,0,0,1,1.668-.749,1.991,1.991,0,0,1,1.708.809h.065l-.035-.395-.02-.385V-7.6h.829V.174h-.674Zm-1.658.14a1.509,1.509,0,0,0,1.231-.462,2.334,2.334,0,0,0,.382-1.491v-.175a2.747,2.747,0,0,0-.387-1.661,1.47,1.47,0,0,0-1.236-.5,1.269,1.269,0,0,0-1.116.567,2.819,2.819,0,0,0-.387,1.6,2.7,2.7,0,0,0,.385,1.583A1.3,1.3,0,0,0,125.789-.421Zm5.029.594h-.829V-5.3h.829Zm-.9-6.957a.551.551,0,0,1,.14-.417.489.489,0,0,1,.35-.132.488.488,0,0,1,.345.135.541.541,0,0,1,.145.415.549.549,0,0,1-.145.417.484.484,0,0,1-.345.137.479.479,0,0,1-.35-.137A.561.561,0,0,1,129.919-6.784ZM135.074-5.4a3.244,3.244,0,0,1,.654.06l-.115.769a2.824,2.824,0,0,0-.6-.075,1.459,1.459,0,0,0-1.136.539,1.967,1.967,0,0,0-.472,1.343V.174h-.829V-5.3h.684l.095,1.014h.04a2.406,2.406,0,0,1,.734-.824A1.653,1.653,0,0,1,135.074-5.4ZM139.064.273a2.515,2.515,0,0,1-1.915-.739,2.862,2.862,0,0,1-.7-2.053,3.173,3.173,0,0,1,.652-2.1,2.165,2.165,0,0,1,1.751-.779,2.064,2.064,0,0,1,1.628.677,2.594,2.594,0,0,1,.6,1.785v.524h-3.771a2.17,2.17,0,0,0,.487,1.463,1.684,1.684,0,0,0,1.3.5,4.409,4.409,0,0,0,1.748-.37v.739a4.387,4.387,0,0,1-.832.272A4.673,4.673,0,0,1,139.064.273Zm-.225-4.979a1.354,1.354,0,0,0-1.051.43,1.98,1.98,0,0,0-.462,1.189h2.862a1.823,1.823,0,0,0-.35-1.2A1.231,1.231,0,0,0,138.839-4.706ZM144.678.273a2.336,2.336,0,0,1-1.84-.732,3.009,3.009,0,0,1-.652-2.07,3.1,3.1,0,0,1,.662-2.123,2.383,2.383,0,0,1,1.885-.749,3.741,3.741,0,0,1,.789.085,2.6,2.6,0,0,1,.619.2l-.255.7a3.9,3.9,0,0,0-.6-.182,2.676,2.676,0,0,0-.574-.072q-1.668,0-1.668,2.128a2.533,2.533,0,0,0,.407,1.548,1.416,1.416,0,0,0,1.206.539,3.688,3.688,0,0,0,1.4-.295v.734A2.991,2.991,0,0,1,144.678.273Zm4.45-.684a2.708,2.708,0,0,0,.425-.032,2.748,2.748,0,0,0,.325-.067V.124a1.515,1.515,0,0,1-.4.107,2.982,2.982,0,0,1-.472.042q-1.588,0-1.588-1.673V-4.656h-.784v-.4l.784-.345.35-1.169h.479V-5.3h1.588v.644h-1.588v3.221a1.108,1.108,0,0,0,.235.759A.817.817,0,0,0,149.128-.411ZM151.8.174h-.829V-7.6h.829Zm.889-5.474h.889l1.2,3.121a11.875,11.875,0,0,1,.489,1.543h.04q.065-.255.272-.872T156.934-5.3h.889L155.471.933a3.109,3.109,0,0,1-.817,1.311,1.736,1.736,0,0,1-1.146.387,3.336,3.336,0,0,1-.749-.085V1.882a2.89,2.89,0,0,0,.614.06,1.266,1.266,0,0,0,1.219-.959L154.9.2ZM163.137-.411a2.708,2.708,0,0,0,.425-.032,2.748,2.748,0,0,0,.325-.067V.124a1.516,1.516,0,0,1-.4.107,2.982,2.982,0,0,1-.472.042q-1.588,0-1.588-1.673V-4.656h-.784v-.4l.784-.345.35-1.169h.479V-5.3h1.588v.644h-1.588v3.221a1.108,1.108,0,0,0,.235.759A.817.817,0,0,0,163.137-.411ZM169.7-2.568a3.02,3.02,0,0,1-.674,2.09,2.375,2.375,0,0,1-1.863.752,2.467,2.467,0,0,1-1.3-.345,2.275,2.275,0,0,1-.879-.989,3.446,3.446,0,0,1-.31-1.508,3.015,3.015,0,0,1,.669-2.085A2.367,2.367,0,0,1,167.2-5.4a2.316,2.316,0,0,1,1.825.764A3.007,3.007,0,0,1,169.7-2.568Zm-4.17,0a2.6,2.6,0,0,0,.42,1.6,1.456,1.456,0,0,0,1.234.549,1.466,1.466,0,0,0,1.236-.547,2.585,2.585,0,0,0,.422-1.6,2.543,2.543,0,0,0-.422-1.586,1.483,1.483,0,0,0-1.246-.542,1.459,1.459,0,0,0-1.229.534A2.572,2.572,0,0,0,165.534-2.568ZM177.181.174l-.165-.779h-.04a2.3,2.3,0,0,1-.817.7,2.489,2.489,0,0,1-1.016.182,1.828,1.828,0,0,1-1.276-.42,1.53,1.53,0,0,1-.462-1.194q0-1.658,2.652-1.738l.929-.03v-.34a1.388,1.388,0,0,0-.277-.951,1.14,1.14,0,0,0-.886-.307,3.612,3.612,0,0,0-1.548.42l-.255-.634a3.9,3.9,0,0,1,.887-.345,3.84,3.84,0,0,1,.966-.125,2.085,2.085,0,0,1,1.451.435,1.814,1.814,0,0,1,.472,1.393V.174Zm-1.873-.584a1.683,1.683,0,0,0,1.216-.425,1.57,1.57,0,0,0,.442-1.189v-.494l-.829.035a3.016,3.016,0,0,0-1.426.307.926.926,0,0,0-.437.847.854.854,0,0,0,.272.684A1.13,1.13,0,0,0,175.308-.411Zm7.941.584V-3.367a1.429,1.429,0,0,0-.3-1,1.241,1.241,0,0,0-.954-.33,1.573,1.573,0,0,0-1.259.464,2.345,2.345,0,0,0-.4,1.533V.174H179.5V-5.3h.674l.135.749h.04a1.693,1.693,0,0,1,.714-.627,2.32,2.32,0,0,1,1.024-.222,2.079,2.079,0,0,1,1.488.477,2.03,2.03,0,0,1,.5,1.526V.174Zm5.314,0v-7.3h.849v7.3Zm5.978-6.648a2.387,2.387,0,0,0-1.9.8,3.233,3.233,0,0,0-.7,2.2,3.3,3.3,0,0,0,.672,2.215,2.388,2.388,0,0,0,1.915.782,6.54,6.54,0,0,0,1.743-.275v.744A5.368,5.368,0,0,1,194.4.273a3.168,3.168,0,0,1-2.49-.979,4.031,4.031,0,0,1-.877-2.782,4.391,4.391,0,0,1,.422-1.978,3.03,3.03,0,0,1,1.219-1.309,3.688,3.688,0,0,1,1.875-.459,4.525,4.525,0,0,1,2.008.42l-.36.729A3.87,3.87,0,0,0,194.542-6.474Zm9.664,2.987a4.02,4.02,0,0,1-.887,2.757,3.117,3.117,0,0,1-2.465,1,3.156,3.156,0,0,1-2.49-.986,4.052,4.052,0,0,1-.877-2.784,4,4,0,0,1,.879-2.764,3.178,3.178,0,0,1,2.5-.981,3.111,3.111,0,0,1,2.457,1A4.016,4.016,0,0,1,204.206-3.487Zm-5.818,0a3.465,3.465,0,0,0,.632,2.25,2.242,2.242,0,0,0,1.835.767,2.22,2.22,0,0,0,1.833-.764,3.514,3.514,0,0,0,.619-2.252,3.486,3.486,0,0,0-.617-2.235,2.21,2.21,0,0,0-1.825-.762,2.253,2.253,0,0,0-1.845.767A3.43,3.43,0,0,0,198.387-3.487ZM211.732.174l-.165-.779h-.04a2.3,2.3,0,0,1-.817.7,2.489,2.489,0,0,1-1.016.182,1.828,1.828,0,0,1-1.276-.42,1.53,1.53,0,0,1-.462-1.194q0-1.658,2.652-1.738l.929-.03v-.34a1.388,1.388,0,0,0-.277-.951,1.14,1.14,0,0,0-.887-.307,3.612,3.612,0,0,0-1.548.42l-.255-.634a3.9,3.9,0,0,1,.887-.345,3.84,3.84,0,0,1,.966-.125,2.085,2.085,0,0,1,1.451.435,1.814,1.814,0,0,1,.472,1.393V.174Zm-1.873-.584a1.683,1.683,0,0,0,1.216-.425,1.57,1.57,0,0,0,.442-1.189v-.494l-.829.035a3.016,3.016,0,0,0-1.426.307.926.926,0,0,0-.437.847.854.854,0,0,0,.272.684A1.13,1.13,0,0,0,209.859-.411Zm7.921-.15h-.045a1.948,1.948,0,0,1-1.718.834,2.032,2.032,0,0,1-1.671-.734,3.232,3.232,0,0,1-.6-2.088,3.286,3.286,0,0,1,.6-2.1,2.017,2.017,0,0,1,1.668-.749,1.991,1.991,0,0,1,1.708.809h.065l-.035-.395-.02-.385V-7.6h.829V.174h-.674Zm-1.658.14a1.509,1.509,0,0,0,1.231-.462,2.334,2.334,0,0,0,.382-1.491v-.175a2.747,2.747,0,0,0-.387-1.661,1.47,1.47,0,0,0-1.236-.5A1.269,1.269,0,0,0,215-4.139a2.819,2.819,0,0,0-.387,1.6,2.7,2.7,0,0,0,.385,1.583A1.3,1.3,0,0,0,216.122-.421Zm7.926-.14H224a1.948,1.948,0,0,1-1.718.834,2.032,2.032,0,0,1-1.671-.734,3.232,3.232,0,0,1-.6-2.088,3.286,3.286,0,0,1,.6-2.1,2.017,2.017,0,0,1,1.668-.749,1.991,1.991,0,0,1,1.708.809h.065l-.035-.395L224-5.37V-7.6h.829V.174h-.674Zm-1.658.14a1.509,1.509,0,0,0,1.231-.462A2.334,2.334,0,0,0,224-2.374v-.175a2.747,2.747,0,0,0-.387-1.661,1.47,1.47,0,0,0-1.236-.5,1.269,1.269,0,0,0-1.116.567,2.819,2.819,0,0,0-.387,1.6,2.7,2.7,0,0,0,.385,1.583A1.3,1.3,0,0,0,222.39-.421Zm6.7-4.979a3.244,3.244,0,0,1,.654.06l-.115.769a2.824,2.824,0,0,0-.6-.075,1.459,1.459,0,0,0-1.136.539,1.967,1.967,0,0,0-.472,1.343V.174h-.829V-5.3h.684l.095,1.014h.04a2.406,2.406,0,0,1,.734-.824A1.653,1.653,0,0,1,229.088-5.4ZM233.078.273a2.515,2.515,0,0,1-1.915-.739,2.862,2.862,0,0,1-.7-2.053,3.174,3.174,0,0,1,.652-2.1,2.165,2.165,0,0,1,1.751-.779,2.064,2.064,0,0,1,1.628.677,2.594,2.594,0,0,1,.6,1.785v.524H231.32a2.17,2.17,0,0,0,.487,1.463,1.684,1.684,0,0,0,1.3.5,4.409,4.409,0,0,0,1.748-.37v.739a4.387,4.387,0,0,1-.832.272A4.673,4.673,0,0,1,233.078.273Zm-.225-4.979a1.354,1.354,0,0,0-1.051.43,1.98,1.98,0,0,0-.462,1.189H234.2a1.823,1.823,0,0,0-.35-1.2A1.231,1.231,0,0,0,232.854-4.706Zm7.182,3.386a1.371,1.371,0,0,1-.569,1.179,2.676,2.676,0,0,1-1.6.415,3.475,3.475,0,0,1-1.7-.345V-.84a4.107,4.107,0,0,0,.847.315,3.535,3.535,0,0,0,.872.115,1.976,1.976,0,0,0,1-.207.685.685,0,0,0,.35-.632.686.686,0,0,0-.277-.547,4.36,4.36,0,0,0-1.081-.537,5.863,5.863,0,0,1-1.086-.5,1.484,1.484,0,0,1-.479-.482,1.257,1.257,0,0,1-.157-.644,1.228,1.228,0,0,1,.544-1.056,2.537,2.537,0,0,1,1.493-.387,4.369,4.369,0,0,1,1.728.36l-.295.674a3.967,3.967,0,0,0-1.493-.34,1.718,1.718,0,0,0-.889.185.571.571,0,0,0-.3.509.621.621,0,0,0,.112.375,1.109,1.109,0,0,0,.362.295,8.093,8.093,0,0,0,.959.4,3.582,3.582,0,0,1,1.316.714A1.259,1.259,0,0,1,240.036-1.32Zm4.88,0a1.371,1.371,0,0,1-.569,1.179,2.676,2.676,0,0,1-1.6.415,3.475,3.475,0,0,1-1.7-.345V-.84a4.106,4.106,0,0,0,.847.315,3.535,3.535,0,0,0,.872.115,1.976,1.976,0,0,0,1-.207.685.685,0,0,0,.35-.632.686.686,0,0,0-.277-.547,4.36,4.36,0,0,0-1.081-.537,5.864,5.864,0,0,1-1.086-.5,1.484,1.484,0,0,1-.479-.482,1.257,1.257,0,0,1-.157-.644,1.228,1.228,0,0,1,.544-1.056,2.537,2.537,0,0,1,1.493-.387,4.369,4.369,0,0,1,1.728.36l-.295.674a3.967,3.967,0,0,0-1.493-.34,1.718,1.718,0,0,0-.889.185.571.571,0,0,0-.3.509.62.62,0,0,0,.112.375,1.109,1.109,0,0,0,.362.295,8.093,8.093,0,0,0,.959.4,3.582,3.582,0,0,1,1.316.714A1.259,1.259,0,0,1,244.915-1.32ZM.41,12.131v-.759H2.862v.759Zm12.361-1.358a3.686,3.686,0,0,1-.981,2.764,3.883,3.883,0,0,1-2.824.956H6.943v-7.3H9.18a3.579,3.579,0,0,1,2.647.944A3.565,3.565,0,0,1,12.771,10.773Zm-.9.03a2.94,2.94,0,0,0-.717-2.153,2.872,2.872,0,0,0-2.13-.724H7.792v5.833H8.826a3.143,3.143,0,0,0,2.282-.747A2.956,2.956,0,0,0,11.872,10.8ZM19,11.752a3.02,3.02,0,0,1-.674,2.09,2.375,2.375,0,0,1-1.863.752,2.467,2.467,0,0,1-1.3-.345,2.274,2.274,0,0,1-.879-.989,3.446,3.446,0,0,1-.31-1.508,3.015,3.015,0,0,1,.669-2.085A2.367,2.367,0,0,1,16.5,8.92a2.316,2.316,0,0,1,1.825.764A3.007,3.007,0,0,1,19,11.752Zm-4.17,0a2.6,2.6,0,0,0,.42,1.6,1.456,1.456,0,0,0,1.234.549,1.466,1.466,0,0,0,1.236-.547,2.585,2.585,0,0,0,.422-1.6,2.543,2.543,0,0,0-.422-1.586,1.483,1.483,0,0,0-1.246-.542,1.459,1.459,0,0,0-1.229.534A2.572,2.572,0,0,0,14.829,11.752Zm12.026,2.742V10.952a1.429,1.429,0,0,0-.3-1,1.241,1.241,0,0,0-.954-.33,1.573,1.573,0,0,0-1.259.464,2.345,2.345,0,0,0-.4,1.533v2.872H23.11V9.02h.674l.135.749h.04a1.693,1.693,0,0,1,.714-.627A2.321,2.321,0,0,1,25.7,8.92a2.079,2.079,0,0,1,1.488.477,2.03,2.03,0,0,1,.5,1.526v3.571Zm7.257-2.742a3.02,3.02,0,0,1-.674,2.09,2.375,2.375,0,0,1-1.863.752,2.467,2.467,0,0,1-1.3-.345,2.274,2.274,0,0,1-.879-.989,3.446,3.446,0,0,1-.31-1.508,3.015,3.015,0,0,1,.669-2.085A2.367,2.367,0,0,1,31.61,8.92a2.316,2.316,0,0,1,1.825.764A3.007,3.007,0,0,1,34.112,11.752Zm-4.17,0a2.6,2.6,0,0,0,.42,1.6,1.665,1.665,0,0,0,2.47,0,2.585,2.585,0,0,0,.422-1.6,2.543,2.543,0,0,0-.422-1.586,1.483,1.483,0,0,0-1.246-.542,1.459,1.459,0,0,0-1.229.534A2.572,2.572,0,0,0,29.942,11.752Zm7.392,2.158a2.708,2.708,0,0,0,.425-.032,2.748,2.748,0,0,0,.325-.067v.634a1.516,1.516,0,0,1-.4.107,2.982,2.982,0,0,1-.472.042q-1.588,0-1.588-1.673V9.664h-.784v-.4l.784-.345.35-1.169h.479V9.02h1.588v.644H36.455v3.221a1.108,1.108,0,0,0,.235.759A.817.817,0,0,0,37.334,13.909Zm9.225-2.158a3.02,3.02,0,0,1-.674,2.09,2.375,2.375,0,0,1-1.863.752,2.467,2.467,0,0,1-1.3-.345,2.274,2.274,0,0,1-.879-.989,3.446,3.446,0,0,1-.31-1.508A3.015,3.015,0,0,1,42.2,9.666a2.367,2.367,0,0,1,1.858-.747,2.316,2.316,0,0,1,1.825.764A3.007,3.007,0,0,1,46.558,11.752Zm-4.17,0a2.6,2.6,0,0,0,.42,1.6,1.665,1.665,0,0,0,2.47,0,2.585,2.585,0,0,0,.422-1.6,2.543,2.543,0,0,0-.422-1.586,1.483,1.483,0,0,0-1.246-.542,1.459,1.459,0,0,0-1.229.534A2.572,2.572,0,0,0,42.388,11.752Zm7.392,2.158a2.708,2.708,0,0,0,.425-.032,2.748,2.748,0,0,0,.325-.067v.634a1.516,1.516,0,0,1-.4.107,2.982,2.982,0,0,1-.472.042q-1.588,0-1.588-1.673V9.664h-.784v-.4l.784-.345.35-1.169H48.9V9.02h1.588v.644H48.9v3.221a1.108,1.108,0,0,0,.235.759A.817.817,0,0,0,49.78,13.909Zm5.589.584V10.952a1.429,1.429,0,0,0-.3-1,1.241,1.241,0,0,0-.954-.33,1.563,1.563,0,0,0-1.261.469,2.378,2.378,0,0,0-.4,1.538v2.862h-.829V6.722h.829V9.075a5.125,5.125,0,0,1-.04.7h.05a1.691,1.691,0,0,1,.7-.622A2.265,2.265,0,0,1,54.19,8.93a2.112,2.112,0,0,1,1.506.477,2.009,2.009,0,0,1,.5,1.516v3.571Zm4.845.1a2.515,2.515,0,0,1-1.915-.739,2.862,2.862,0,0,1-.7-2.053,3.174,3.174,0,0,1,.652-2.1A2.165,2.165,0,0,1,60,8.92a2.064,2.064,0,0,1,1.628.677,2.594,2.594,0,0,1,.6,1.785v.524H58.455a2.17,2.17,0,0,0,.487,1.463,1.684,1.684,0,0,0,1.3.5,4.409,4.409,0,0,0,1.748-.37v.739a4.387,4.387,0,0,1-.832.272A4.673,4.673,0,0,1,60.213,14.593Zm-.225-4.979a1.354,1.354,0,0,0-1.051.43,1.98,1.98,0,0,0-.462,1.189h2.862a1.823,1.823,0,0,0-.35-1.2A1.231,1.231,0,0,0,59.988,9.614Zm6.148-.694a3.244,3.244,0,0,1,.654.06l-.115.769a2.824,2.824,0,0,0-.6-.075,1.459,1.459,0,0,0-1.136.539,1.967,1.967,0,0,0-.472,1.343v2.937h-.829V9.02h.684l.095,1.014h.04a2.406,2.406,0,0,1,.734-.824A1.653,1.653,0,0,1,66.136,8.92ZM74,13a1.371,1.371,0,0,1-.569,1.179,2.676,2.676,0,0,1-1.6.415,3.475,3.475,0,0,1-1.7-.345V13.48a4.107,4.107,0,0,0,.847.315,3.535,3.535,0,0,0,.872.115,1.976,1.976,0,0,0,1-.207.714.714,0,0,0,.072-1.179,4.36,4.36,0,0,0-1.081-.537,5.863,5.863,0,0,1-1.086-.5,1.484,1.484,0,0,1-.479-.482,1.257,1.257,0,0,1-.157-.644,1.228,1.228,0,0,1,.544-1.056,2.537,2.537,0,0,1,1.493-.387,4.369,4.369,0,0,1,1.728.36l-.295.674a3.967,3.967,0,0,0-1.493-.34,1.718,1.718,0,0,0-.889.185.571.571,0,0,0-.3.509.62.62,0,0,0,.112.375,1.109,1.109,0,0,0,.362.295,8.091,8.091,0,0,0,.959.4,3.582,3.582,0,0,1,1.316.714A1.259,1.259,0,0,1,74,13Zm3.116.909a2.708,2.708,0,0,0,.425-.032,2.748,2.748,0,0,0,.325-.067v.634a1.516,1.516,0,0,1-.4.107,2.982,2.982,0,0,1-.472.042q-1.588,0-1.588-1.673V9.664h-.784v-.4l.784-.345.35-1.169h.479V9.02h1.588v.644H76.24v3.221a1.108,1.108,0,0,0,.235.759A.817.817,0,0,0,77.119,13.909ZM79.741,9.02v3.551a1.429,1.429,0,0,0,.3,1A1.241,1.241,0,0,0,81,13.9a1.556,1.556,0,0,0,1.256-.469,2.368,2.368,0,0,0,.4-1.533V9.02h.829v5.474H82.8l-.12-.734h-.045a1.652,1.652,0,0,1-.707.619,2.375,2.375,0,0,1-1.031.215,2.092,2.092,0,0,1-1.5-.474,2.02,2.02,0,0,1-.5-1.518V9.02Zm11.432.644H89.78v4.83h-.829V9.664h-.979V9.289l.979-.3v-.3q0-2.018,1.763-2.018a3.628,3.628,0,0,1,1.019.175l-.215.664a2.743,2.743,0,0,0-.819-.155A.8.8,0,0,0,90,7.664a1.742,1.742,0,0,0-.225,1V9.02h1.393Zm-3.466,0H86.313v4.83h-.829V9.664h-.979V9.289l.979-.3v-.3q0-2.018,1.763-2.018a3.628,3.628,0,0,1,1.019.175l-.215.664a2.743,2.743,0,0,0-.819-.155.8.8,0,0,0-.694.312,1.742,1.742,0,0,0-.225,1V9.02h1.393Zm4.35,4.3a.744.744,0,0,1,.152-.507.552.552,0,0,1,.437-.172.591.591,0,0,1,.452.172.713.713,0,0,1,.162.507.7.7,0,0,1-.165.5.655.655,0,0,1-.872.017A.684.684,0,0,1,92.057,13.964ZM.41,26.451v-.759H2.862v.759Zm12.871-1.3a4.02,4.02,0,0,1-.887,2.757,3.117,3.117,0,0,1-2.465,1,3.156,3.156,0,0,1-2.49-.986,4.053,4.053,0,0,1-.877-2.784,4,4,0,0,1,.879-2.764,3.178,3.178,0,0,1,2.5-.981,3.11,3.11,0,0,1,2.457,1A4.016,4.016,0,0,1,13.281,25.152Zm-5.818,0a3.466,3.466,0,0,0,.632,2.25,2.242,2.242,0,0,0,1.835.767,2.22,2.22,0,0,0,1.833-.764,3.514,3.514,0,0,0,.619-2.252,3.486,3.486,0,0,0-.617-2.235,2.21,2.21,0,0,0-1.825-.762,2.253,2.253,0,0,0-1.845.767A3.43,3.43,0,0,0,7.462,25.152Zm9.09,3.077a2.708,2.708,0,0,0,.425-.032,2.748,2.748,0,0,0,.325-.067v.634a1.516,1.516,0,0,1-.4.107,2.982,2.982,0,0,1-.472.042q-1.588,0-1.588-1.673V23.984H14.06v-.4l.784-.345.35-1.169h.479V23.34h1.588v.644H15.673v3.221a1.108,1.108,0,0,0,.235.759A.817.817,0,0,0,16.552,28.229Zm5.589.584V25.272a1.429,1.429,0,0,0-.3-1,1.241,1.241,0,0,0-.954-.33,1.563,1.563,0,0,0-1.261.469,2.378,2.378,0,0,0-.4,1.538v2.862h-.829V21.042h.829v2.352a5.126,5.126,0,0,1-.04.7h.05a1.691,1.691,0,0,1,.7-.622,2.265,2.265,0,0,1,1.031-.227,2.112,2.112,0,0,1,1.506.477,2.009,2.009,0,0,1,.5,1.516v3.571Zm4.845.1a2.515,2.515,0,0,1-1.915-.739,2.862,2.862,0,0,1-.7-2.053,3.174,3.174,0,0,1,.652-2.1,2.165,2.165,0,0,1,1.751-.779,2.064,2.064,0,0,1,1.628.677A2.594,2.594,0,0,1,29,25.7v.524H25.227a2.17,2.17,0,0,0,.487,1.463,1.684,1.684,0,0,0,1.3.5,4.409,4.409,0,0,0,1.748-.37v.739a4.387,4.387,0,0,1-.832.272A4.673,4.673,0,0,1,26.985,28.913Zm-.225-4.979a1.354,1.354,0,0,0-1.051.43,1.98,1.98,0,0,0-.462,1.189h2.862a1.823,1.823,0,0,0-.35-1.2A1.231,1.231,0,0,0,26.761,23.934Zm6.148-.694a3.244,3.244,0,0,1,.654.06l-.115.769a2.824,2.824,0,0,0-.6-.075,1.459,1.459,0,0,0-1.136.539,1.967,1.967,0,0,0-.472,1.343v2.937h-.829V23.34H31.1l.095,1.014h.04a2.406,2.406,0,0,1,.734-.824A1.653,1.653,0,0,1,32.909,23.24Zm5.164,5.574h-.829V23.34h.829Zm-.9-6.957a.551.551,0,0,1,.14-.417.518.518,0,0,1,.694,0,.541.541,0,0,1,.145.415.549.549,0,0,1-.145.417.507.507,0,0,1-.694,0A.561.561,0,0,1,37.174,21.856Zm9.634,6.957V25.252a1.478,1.478,0,0,0-.28-.981,1.082,1.082,0,0,0-.869-.327,1.4,1.4,0,0,0-1.144.444,2.112,2.112,0,0,0-.37,1.368v3.057h-.829V25.252a1.478,1.478,0,0,0-.28-.981,1.088,1.088,0,0,0-.874-.327,1.354,1.354,0,0,0-1.141.467,2.527,2.527,0,0,0-.362,1.531v2.872h-.829V23.34h.674l.135.749h.04a1.629,1.629,0,0,1,.662-.624,2.022,2.022,0,0,1,.956-.225,1.626,1.626,0,0,1,1.678.929h.04a1.745,1.745,0,0,1,.709-.679,2.2,2.2,0,0,1,1.059-.25,1.854,1.854,0,0,1,1.391.477,2.134,2.134,0,0,1,.462,1.526v3.571Zm5.084.1a2.369,2.369,0,0,1-.976-.2,1.836,1.836,0,0,1-.742-.607h-.06a7.342,7.342,0,0,1,.06.909v2.252h-.829V23.34h.674l.115.749h.04a1.925,1.925,0,0,1,.744-.649,2.262,2.262,0,0,1,.974-.2,2.023,2.023,0,0,1,1.681.744,3.276,3.276,0,0,1,.592,2.088,3.257,3.257,0,0,1-.6,2.1A2.027,2.027,0,0,1,51.892,28.913Zm-.12-4.969a1.469,1.469,0,0,0-1.214.464,2.39,2.39,0,0,0-.385,1.478v.185a2.739,2.739,0,0,0,.385,1.651,1.463,1.463,0,0,0,1.234.5,1.283,1.283,0,0,0,1.111-.574,2.724,2.724,0,0,0,.4-1.583,2.621,2.621,0,0,0-.4-1.571A1.322,1.322,0,0,0,51.772,23.944Zm8.565,2.128a3.02,3.02,0,0,1-.674,2.09,2.375,2.375,0,0,1-1.863.752,2.467,2.467,0,0,1-1.3-.345,2.274,2.274,0,0,1-.879-.989,3.446,3.446,0,0,1-.31-1.508,3.015,3.015,0,0,1,.669-2.085,2.367,2.367,0,0,1,1.858-.747A2.316,2.316,0,0,1,59.661,24,3.007,3.007,0,0,1,60.338,26.071Zm-4.17,0a2.6,2.6,0,0,0,.42,1.6,1.665,1.665,0,0,0,2.47,0,2.585,2.585,0,0,0,.422-1.6,2.543,2.543,0,0,0-.422-1.586,1.483,1.483,0,0,0-1.246-.542,1.459,1.459,0,0,0-1.229.534A2.572,2.572,0,0,0,56.167,26.071Zm8.121-2.832a3.244,3.244,0,0,1,.654.06l-.115.769a2.824,2.824,0,0,0-.6-.075,1.459,1.459,0,0,0-1.136.539,1.967,1.967,0,0,0-.472,1.343v2.937h-.829V23.34h.684l.095,1.014h.04a2.406,2.406,0,0,1,.734-.824A1.653,1.653,0,0,1,64.288,23.24Zm3.446,4.989a2.708,2.708,0,0,0,.425-.032,2.747,2.747,0,0,0,.325-.067v.634a1.516,1.516,0,0,1-.4.107,2.982,2.982,0,0,1-.472.042q-1.588,0-1.588-1.673V23.984h-.784v-.4l.784-.345.35-1.169h.479V23.34h1.588v.644H66.855v3.221a1.108,1.108,0,0,0,.235.759A.817.817,0,0,0,67.734,28.229Zm5.209.584-.165-.779h-.04a2.3,2.3,0,0,1-.817.7,2.489,2.489,0,0,1-1.016.182,1.828,1.828,0,0,1-1.276-.42,1.53,1.53,0,0,1-.462-1.194q0-1.658,2.652-1.738l.929-.03v-.34a1.388,1.388,0,0,0-.277-.951,1.14,1.14,0,0,0-.886-.307,3.612,3.612,0,0,0-1.548.42l-.255-.634a3.9,3.9,0,0,1,.886-.345,3.839,3.839,0,0,1,.966-.125,2.085,2.085,0,0,1,1.451.435,1.814,1.814,0,0,1,.472,1.393v3.736Zm-1.873-.584a1.683,1.683,0,0,0,1.216-.425,1.57,1.57,0,0,0,.442-1.189v-.494l-.829.035a3.016,3.016,0,0,0-1.426.307.926.926,0,0,0-.437.847.854.854,0,0,0,.272.684A1.13,1.13,0,0,0,71.071,28.229Zm7.941.584V25.272a1.429,1.429,0,0,0-.3-1,1.241,1.241,0,0,0-.954-.33,1.573,1.573,0,0,0-1.259.464,2.345,2.345,0,0,0-.4,1.533v2.872h-.829V23.34h.674l.135.749h.04a1.693,1.693,0,0,1,.714-.627,2.32,2.32,0,0,1,1.024-.222,2.079,2.079,0,0,1,1.488.477,2.03,2.03,0,0,1,.5,1.526v3.571Zm4.3-.584a2.708,2.708,0,0,0,.425-.032,2.748,2.748,0,0,0,.325-.067v.634a1.516,1.516,0,0,1-.4.107,2.982,2.982,0,0,1-.472.042q-1.588,0-1.588-1.673V23.984H80.82v-.4l.784-.345.35-1.169h.479V23.34h1.588v.644H82.433v3.221a1.108,1.108,0,0,0,.235.759A.817.817,0,0,0,83.312,28.229Zm5.329.584h-.829V23.34h.829Zm-.9-6.957a.551.551,0,0,1,.14-.417.518.518,0,0,1,.694,0,.541.541,0,0,1,.145.415.549.549,0,0,1-.145.417.507.507,0,0,1-.694,0A.561.561,0,0,1,87.742,21.856Zm6.4,6.957V25.272a1.429,1.429,0,0,0-.3-1,1.241,1.241,0,0,0-.954-.33,1.573,1.573,0,0,0-1.259.464,2.345,2.345,0,0,0-.4,1.533v2.872H90.4V23.34h.674l.135.749h.04a1.693,1.693,0,0,1,.714-.627,2.32,2.32,0,0,1,1.024-.222,2.079,2.079,0,0,1,1.488.477,2.03,2.03,0,0,1,.5,1.526v3.571Zm5-4.83H97.751v4.83h-.829v-4.83h-.979v-.375l.979-.3V23q0-2.018,1.763-2.018a3.628,3.628,0,0,1,1.019.175l-.215.664a2.743,2.743,0,0,0-.819-.155.8.8,0,0,0-.694.312,1.742,1.742,0,0,0-.225,1v.355h1.393Zm5.724,2.088a3.02,3.02,0,0,1-.674,2.09,2.375,2.375,0,0,1-1.863.752,2.467,2.467,0,0,1-1.3-.345,2.274,2.274,0,0,1-.879-.989,3.446,3.446,0,0,1-.31-1.508,3.015,3.015,0,0,1,.669-2.085,2.367,2.367,0,0,1,1.858-.747,2.316,2.316,0,0,1,1.825.764A3.007,3.007,0,0,1,104.868,26.071Zm-4.17,0a2.6,2.6,0,0,0,.42,1.6,1.665,1.665,0,0,0,2.47,0,2.585,2.585,0,0,0,.422-1.6,2.543,2.543,0,0,0-.422-1.586,1.483,1.483,0,0,0-1.246-.542,1.459,1.459,0,0,0-1.229.534A2.572,2.572,0,0,0,100.7,26.071Zm12.026,2.742V25.272a1.429,1.429,0,0,0-.3-1,1.241,1.241,0,0,0-.954-.33,1.563,1.563,0,0,0-1.261.469,2.378,2.378,0,0,0-.4,1.538v2.862h-.829V21.042h.829v2.352a5.126,5.126,0,0,1-.04.7h.05a1.691,1.691,0,0,1,.7-.622,2.265,2.265,0,0,1,1.031-.227,2.112,2.112,0,0,1,1.506.477,2.009,2.009,0,0,1,.5,1.516v3.571Zm4.845.1a2.515,2.515,0,0,1-1.915-.739,2.862,2.862,0,0,1-.7-2.053,3.174,3.174,0,0,1,.652-2.1,2.165,2.165,0,0,1,1.751-.779,2.064,2.064,0,0,1,1.628.677,2.594,2.594,0,0,1,.6,1.785v.524H115.81a2.17,2.17,0,0,0,.487,1.463,1.684,1.684,0,0,0,1.3.5,4.409,4.409,0,0,0,1.748-.37v.739a4.388,4.388,0,0,1-.832.272A4.673,4.673,0,0,1,117.568,28.913Zm-.225-4.979a1.354,1.354,0,0,0-1.051.43,1.98,1.98,0,0,0-.462,1.189h2.862a1.823,1.823,0,0,0-.35-1.2A1.231,1.231,0,0,0,117.344,23.934Zm6.148-.694a3.244,3.244,0,0,1,.654.06l-.115.769a2.824,2.824,0,0,0-.6-.075,1.459,1.459,0,0,0-1.136.539,1.967,1.967,0,0,0-.472,1.343v2.937h-.829V23.34h.684l.095,1.014h.04a2.406,2.406,0,0,1,.734-.824A1.653,1.653,0,0,1,123.492,23.24Zm3.991,5.674a2.515,2.515,0,0,1-1.915-.739,2.862,2.862,0,0,1-.7-2.053,3.173,3.173,0,0,1,.652-2.1,2.165,2.165,0,0,1,1.751-.779,2.064,2.064,0,0,1,1.628.677,2.594,2.594,0,0,1,.6,1.785v.524h-3.771a2.17,2.17,0,0,0,.487,1.463,1.684,1.684,0,0,0,1.3.5,4.409,4.409,0,0,0,1.748-.37v.739a4.388,4.388,0,0,1-.832.272A4.673,4.673,0,0,1,127.482,28.913Zm-.225-4.979a1.354,1.354,0,0,0-1.051.43,1.98,1.98,0,0,0-.462,1.189h2.862a1.823,1.823,0,0,0-.35-1.2A1.23,1.23,0,0,0,127.257,23.934Zm3.531,4.35a.744.744,0,0,1,.152-.507.552.552,0,0,1,.437-.172.591.591,0,0,1,.452.172.713.713,0,0,1,.162.507.7.7,0,0,1-.165.5.655.655,0,0,1-.872.017A.684.684,0,0,1,130.788,28.284Z" transform="translate(166.701 246.224)" fill="#fff"/>
    <path id="Path_14649" data-name="Path 14649" d="M6.078-4.367A5.946,5.946,0,0,0,.133-10.312,5.946,5.946,0,0,0-5.812-4.367,5.945,5.945,0,0,0,.133,1.578,5.945,5.945,0,0,0,6.078-4.367ZM.133-3.169a1.1,1.1,0,0,1,1.1,1.1,1.1,1.1,0,0,1-1.1,1.1,1.1,1.1,0,0,1-1.1-1.1A1.1,1.1,0,0,1,.133-3.169ZM-.914-7.132a.288.288,0,0,1,.287-.3H.893a.288.288,0,0,1,.287.3L1-3.872A.288.288,0,0,1,.715-3.6H-.449a.288.288,0,0,1-.287-.272Z" transform="translate(37.68 247.185)" fill="#999"/>
    <path id="Path_14623" data-name="Path 14623" d="M-3.507-7a.558.558,0,0,0-.394.954l3.6,3.6a.56.56,0,0,0,.792,0l3.6-3.6A.558.558,0,0,0,3.69-7Z" transform="translate(377.305 63.148)" fill="#fff"/>
  </g>
</svg>
