<?xml version="1.0" encoding="utf-8"?>
<!-- Generator: Adobe Illustrator 16.0.0, SVG Export Plug-In . SVG Version: 6.00 Build 0)  -->
<!DOCTYPE svg PUBLIC "-//W3C//DTD SVG 1.1//EN" "http://www.w3.org/Graphics/SVG/1.1/DTD/svg11.dtd">
<svg version="1.1" id="Layer_1" xmlns="http://www.w3.org/2000/svg" xmlns:xlink="http://www.w3.org/1999/xlink" x="0px" y="0px"
	 width="180px" height="57.601px" viewBox="0 0 180 57.601" enable-background="new 0 0 180 57.601" xml:space="preserve">
<g>
	<path fill="#FFFFFF" d="M112.871,7.549v20.906h20.905V7.549H112.871z M127.425,18.703h-3.408v2.141v1.267h-1.387v-1.267v-2.141
		h-2.139h-1.268V17.32h1.268h2.139v-2.141v-1.267h1.385v3.408h0.002l0,0h2.14h1.269V18.703z"/>
	<g>
		<path fill="#FFFFFF" d="M13.314,16.293c0-0.392-0.12-0.672-0.362-0.845c-0.242-0.171-0.617-0.258-1.126-0.258h-1.771v2.124h1.76
			C12.815,17.313,13.314,16.973,13.314,16.293z"/>
		<path fill="#FFFFFF" d="M12.049,18.592h-1.995v2.24h2.169c0.509,0,0.898-0.08,1.167-0.241c0.27-0.16,0.405-0.463,0.405-0.909
			C13.796,18.955,13.214,18.592,12.049,18.592z"/>
		<path fill="#FFFFFF" d="M1.49,7.549v20.906h20.906V7.549H1.49z M14.628,21.349c-0.461,0.508-1.251,0.763-2.369,0.763H8.67v-8.199
			h3.189c0.556,0,1.035,0.067,1.438,0.2c0.402,0.133,0.701,0.313,0.896,0.539c0.375,0.423,0.562,0.9,0.562,1.432
			c0,0.642-0.202,1.119-0.609,1.431c-0.149,0.11-0.251,0.178-0.306,0.205c-0.054,0.028-0.152,0.073-0.292,0.136
			c0.508,0.11,0.912,0.338,1.214,0.686c0.3,0.348,0.451,0.78,0.451,1.296C15.215,20.407,15.02,20.91,14.628,21.349z"/>
	</g>
	<path fill="#FFFFFF" d="M23.767,7.549v20.906h20.904V7.549H23.767z M36.781,22.111h-5.125v-8.199h1.385v6.885h3.74V22.111z"/>
	<path fill="#FFFFFF" d="M23.767,29.846V50.75h20.904V29.846H23.767z M37.168,44.406h-5.899v-8.199h5.76v1.301h-4.376v2.172h3.93
		v1.231h-3.93v2.192h4.515V44.406z"/>
	<g>
		<path fill="#FFFFFF" d="M46.042,7.549v20.906h20.905V7.549H46.042z M59.369,22.111l-0.821-1.866h-4.106l-0.821,1.866h-1.478
			l3.612-8.199h1.479l3.612,8.199H59.369z"/>
		<polygon fill="#FFFFFF" points="55.005,18.968 57.986,18.968 56.494,15.589 		"/>
	</g>
	<path fill="#FFFFFF" d="M46.042,29.846V50.75h20.905V29.846H46.042z M58.859,43.885c-0.54,0.446-1.247,0.67-2.124,0.67
		c-1.282,0-2.421-0.44-3.414-1.327l0.869-1.042c0.829,0.72,1.689,1.078,2.582,1.078c0.444,0,0.798-0.095,1.061-0.287
		c0.262-0.191,0.393-0.444,0.393-0.763c0-0.316-0.123-0.562-0.37-0.739c-0.246-0.177-0.67-0.335-1.271-0.48
		c-0.604-0.144-1.061-0.275-1.374-0.397s-0.591-0.282-0.833-0.478c-0.484-0.365-0.727-0.93-0.727-1.687
		c0-0.758,0.277-1.345,0.827-1.755c0.551-0.41,1.234-0.617,2.046-0.617c0.525,0,1.044,0.088,1.561,0.259
		c0.516,0.171,0.962,0.414,1.337,0.727l-0.739,1.044c-0.241-0.219-0.57-0.397-0.985-0.539c-0.415-0.14-0.824-0.21-1.226-0.21
		c-0.404,0-0.733,0.082-0.991,0.245c-0.26,0.165-0.388,0.415-0.388,0.746c0,0.333,0.128,0.585,0.388,0.763
		c0.258,0.174,0.807,0.366,1.648,0.567c0.84,0.204,1.474,0.49,1.899,0.857c0.426,0.368,0.638,0.909,0.638,1.625
		C59.667,42.859,59.398,43.44,58.859,43.885z"/>
	<path fill="#FFFFFF" d="M68.319,7.549v20.906h20.904V7.549H68.319z M79.464,22.111h-1.385v-8.199h1.385V22.111z"/>
	<path fill="#FFFFFF" d="M68.319,29.846V50.75h20.904V29.846H68.319z M79.464,44.406h-1.385v-8.199h1.385V44.406z"/>
	<g>
		<path fill="#FFFFFF" d="M102.278,15.466c-0.289-0.199-0.806-0.299-1.547-0.299h-1.759v2.932h1.724
			c0.782,0,1.313-0.121,1.596-0.363c0.281-0.243,0.421-0.631,0.421-1.167C102.712,16.034,102.569,15.665,102.278,15.466z"/>
		<path fill="#FFFFFF" d="M90.595,7.549v20.906H111.5V7.549H90.595z M102.749,22.111l-1.959-2.757h-1.818v2.757h-1.385v-8.199h3.051
			c1.25,0,2.145,0.21,2.685,0.634c0.54,0.421,0.81,1.098,0.81,2.029c0,1.353-0.589,2.205-1.772,2.557l2.148,2.98H102.749z"/>
	</g>
	<path fill="#FFFFFF" d="M90.595,29.846V50.75H111.5V29.846H90.595z M104.843,43.276c-0.775,0.851-1.88,1.278-3.319,1.278
		c-1.213,0-2.228-0.399-3.044-1.196c-0.82-0.798-1.228-1.807-1.228-3.026c0-1.22,0.418-2.237,1.249-3.051
		c0.833-0.813,1.84-1.221,3.022-1.221c1.179,0,2.161,0.345,2.943,1.033l-0.738,1.056c-0.321-0.273-0.644-0.464-0.968-0.569
		c-0.326-0.105-0.702-0.158-1.133-0.158c-0.826,0-1.524,0.267-2.085,0.801c-0.565,0.537-0.846,1.242-0.846,2.113
		c0,0.872,0.272,1.571,0.819,2.1c0.549,0.528,1.21,0.79,1.99,0.79c0.779,0,1.428-0.167,1.952-0.503v-2.253h1.385V43.276z"/>
	<path fill="#FFFFFF" d="M112.871,29.846V50.75h20.905V29.846H112.871z M127.089,44.406h-1.5l-4.648-5.981v5.981h-1.383v-8.199
		h1.383l4.767,6.125v-6.125h1.381V44.406z"/>
	<path fill="#FFFFFF" d="M135.148,7.549v20.906h20.904V7.549H135.148z M149.019,22.111h-1.383v-3.354h-4.07v3.354h-1.385v-8.199
		h1.385v3.554h4.07v-3.554h1.383V22.111z"/>
	<path fill="#FFFFFF" d="M135.148,29.846V50.75h20.904V29.846H135.148z M148.549,44.406h-5.898v-8.199h5.76v1.301h-4.375v2.172h3.93
		v1.231h-3.93v2.192h4.514V44.406z"/>
	<path fill="#FFFFFF" d="M157.424,7.549v20.906h20.906V7.549H157.424z M170.826,22.111h-5.9v-8.199h5.761v1.302h-4.374v2.17h3.928
		v1.231h-3.928v2.194h4.514V22.111z"/>
	<g>
		<path fill="#FFFFFF" d="M169.107,37.764c-0.289-0.201-0.806-0.3-1.547-0.3h-1.762v2.931h1.725c0.782,0,1.314-0.12,1.598-0.363
			c0.28-0.243,0.421-0.632,0.421-1.167C169.542,38.329,169.396,37.961,169.107,37.764z"/>
		<path fill="#FFFFFF" d="M157.424,29.846V50.75h20.906V29.846H157.424z M169.577,44.406l-1.958-2.757h-1.82v2.757h-1.385v-8.199
			h3.051c1.252,0,2.147,0.213,2.687,0.635c0.54,0.422,0.809,1.098,0.809,2.03c0,1.352-0.588,2.204-1.771,2.557l2.148,2.978H169.577z
			"/>
	</g>
	<path fill="#FFFFFF" d="M1.49,29.846V50.75h20.906V29.846H1.49z M14.488,43.293c-0.767,0.742-1.94,1.113-3.52,1.113H8.248v-1.302
		h1.384h0.171h1.365c0.994,0,1.753-0.235,2.282-0.708c0.528-0.474,0.792-1.171,0.792-2.095c0-1.876-1.075-2.812-3.225-2.812H9.803
		H9.631H8.248v-1.281h2.815c1.471,0,2.601,0.359,3.391,1.073c0.79,0.716,1.184,1.713,1.184,2.986
		C15.637,41.543,15.254,42.55,14.488,43.293z"/>
</g>
</svg>
