<svg xmlns="http://www.w3.org/2000/svg" xmlns:xlink="http://www.w3.org/1999/xlink" width="150" height="21" viewBox="0 0 150 21">
  <defs>
    <clipPath id="clip-logo">
      <rect width="150" height="21"/>
    </clipPath>
  </defs>
  <g id="logo" clip-path="url(#clip-logo)">
    <rect width="150" height="21" fill="#fff"/>
    <path id="Path_25313" data-name="Path 25313" d="M-29.541,2.006a3.231,3.231,0,0,1-1.4-.338A4.891,4.891,0,0,1-32.286.7h-.061l-.2,1.065h-1.864V-12.7h2.356v3.729l-.061,1.68a5.872,5.872,0,0,1,1.383-.9,3.58,3.58,0,0,1,1.526-.348,3.794,3.794,0,0,1,1.68.359,3.478,3.478,0,0,1,1.25,1.024,4.706,4.706,0,0,1,.778,1.608,7.756,7.756,0,0,1,.266,2.11,6.891,6.891,0,0,1-.358,2.3A5.356,5.356,0,0,1-26.55.572a4.1,4.1,0,0,1-1.372,1.065A3.737,3.737,0,0,1-29.541,2.006ZM-30.032.06a2.051,2.051,0,0,0,1.68-.871A4.179,4.179,0,0,0-27.676-3.4a4.536,4.536,0,0,0-.512-2.356,1.8,1.8,0,0,0-1.659-.84A3.268,3.268,0,0,0-32.06-5.471V-.78a3.255,3.255,0,0,0,1.055.656A2.935,2.935,0,0,0-30.032.06Zm9.444,1.946a1.993,1.993,0,0,1-1.782-.758,3.652,3.652,0,0,1-.512-2.069V-12.7h2.356V-.7a.877.877,0,0,0,.164.6.478.478,0,0,0,.348.174h.154A.869.869,0,0,0-19.646.04l.307,1.762A3.179,3.179,0,0,1-20.589,2.006Zm5.695,0A2.929,2.929,0,0,1-17.045,1.2a2.874,2.874,0,0,1-.819-2.141,2.945,2.945,0,0,1,.338-1.424,2.914,2.914,0,0,1,1.065-1.076A7.074,7.074,0,0,1-14.617-4.2a16.857,16.857,0,0,1,2.673-.471,3.8,3.8,0,0,0-.113-.748,1.719,1.719,0,0,0-.307-.635,1.429,1.429,0,0,0-.563-.43,2.131,2.131,0,0,0-.86-.154,3.809,3.809,0,0,0-1.444.287,9.712,9.712,0,0,0-1.383.7l-.86-1.577a10.076,10.076,0,0,1,1.885-.922,6.4,6.4,0,0,1,2.253-.389A3.46,3.46,0,0,1-10.52-7.428,4.913,4.913,0,0,1-9.588-4.2V1.76h-1.946L-11.7.654h-.082a7.39,7.39,0,0,1-1.444.963A3.641,3.641,0,0,1-14.894,2.006Zm.758-1.844A2.21,2.21,0,0,0-13.02-.124a5.994,5.994,0,0,0,1.075-.819V-3.2a10.752,10.752,0,0,0-1.721.328,4.974,4.974,0,0,0-1.127.461,1.642,1.642,0,0,0-.615.584,1.4,1.4,0,0,0-.184.7,1.149,1.149,0,0,0,.41.983A1.694,1.694,0,0,0-14.136.163Zm7.375,1.6V-8.3h2.356V1.76ZM-5.573-10.06a1.5,1.5,0,0,1-1.045-.369,1.234,1.234,0,0,1-.41-.963,1.266,1.266,0,0,1,.41-.973,1.478,1.478,0,0,1,1.045-.379,1.478,1.478,0,0,1,1.045.379,1.266,1.266,0,0,1,.41.973,1.234,1.234,0,0,1-.41.963A1.5,1.5,0,0,1-5.573-10.06ZM-1.394,1.76V-8.3H.552L.716-6.516H.8A4.223,4.223,0,0,1,2.088-8.022a2.712,2.712,0,0,1,1.557-.522,2.7,2.7,0,0,1,1.147.2l-.41,2.049a4.3,4.3,0,0,0-.492-.123,3.157,3.157,0,0,0-.553-.041,2.195,2.195,0,0,0-1.25.461A3.561,3.561,0,0,0,.961-4.385V1.76Z" transform="translate(35.719 14.027)"/>
    <path id="Path_25312" data-name="Path 25312" d="M-40.528,2.034a2.866,2.866,0,0,1-1.188-.215,1.9,1.9,0,0,1-.758-.6,2.36,2.36,0,0,1-.4-.942,6.062,6.062,0,0,1-.113-1.209v-6.33h-1.536v-.7l1.557-.082.123-2.848h.778v2.848h2.847v.778h-2.847V-.855a4.6,4.6,0,0,0,.072.85,1.757,1.757,0,0,0,.256.656,1.236,1.236,0,0,0,.5.43,1.914,1.914,0,0,0,.83.154,2.386,2.386,0,0,0,.625-.092,3.881,3.881,0,0,0,.6-.215l.246.738a6.914,6.914,0,0,1-.86.266A3.262,3.262,0,0,1-40.528,2.034Zm3.708-.246v-14.73h.9v6.433a9.081,9.081,0,0,1,1.577-1.28,3.355,3.355,0,0,1,1.823-.5,2.677,2.677,0,0,1,2.253.922,4.622,4.622,0,0,1,.717,2.848v6.31h-.9V-4.4a4.109,4.109,0,0,0-.522-2.325A1.962,1.962,0,0,0-32.7-7.472a2.893,2.893,0,0,0-1.6.461,9.747,9.747,0,0,0-1.618,1.383V1.788Zm14.544.246a4.531,4.531,0,0,1-1.772-.348A4.108,4.108,0,0,1-25.493.671a4.9,4.9,0,0,1-.973-1.618,6.105,6.105,0,0,1-.358-2.161,6.19,6.19,0,0,1,.358-2.172A4.973,4.973,0,0,1-25.5-6.909,4.3,4.3,0,0,1-24.13-7.933a3.714,3.714,0,0,1,1.588-.359A3.426,3.426,0,0,1-19.777-7.1a5.06,5.06,0,0,1,1,3.36v.369a1.7,1.7,0,0,1-.041.369H-25.9A5.717,5.717,0,0,0-25.615-1.3,4.049,4.049,0,0,0-24.868.057,3.413,3.413,0,0,0-23.71.938a3.522,3.522,0,0,0,1.516.318A4.187,4.187,0,0,0-20.75,1.02a4.726,4.726,0,0,0,1.2-.645l.369.7a12.154,12.154,0,0,1-1.3.656A4.518,4.518,0,0,1-22.276,2.034ZM-25.9-3.744h6.268a4.357,4.357,0,0,0-.778-2.837,2.6,2.6,0,0,0-2.11-.932,2.932,2.932,0,0,0-1.209.256,3.2,3.2,0,0,0-1.034.748,4.027,4.027,0,0,0-.758,1.188A5.241,5.241,0,0,0-25.9-3.744ZM-8.756,2.034A3.675,3.675,0,0,1-11.727.712a5.807,5.807,0,0,1-1.106-3.821,6.29,6.29,0,0,1,.348-2.151A4.957,4.957,0,0,1-11.532-6.9a4.171,4.171,0,0,1,1.393-1.035,3.988,3.988,0,0,1,1.67-.359A3.606,3.606,0,0,1-6.9-7.974a7.768,7.768,0,0,1,1.4.891l-.041-1.8v-4.056h.9V1.788h-.778L-5.5.518h-.061a6.563,6.563,0,0,1-1.4,1.055A3.557,3.557,0,0,1-8.756,2.034Zm.123-.8A3.155,3.155,0,0,0-7.066.815,7.163,7.163,0,0,0-5.54-.384V-6.222A5.385,5.385,0,0,0-7-7.206a3.607,3.607,0,0,0-1.4-.287,2.876,2.876,0,0,0-1.372.338,3.453,3.453,0,0,0-1.1.922A4.49,4.49,0,0,0-11.6-4.84a5.5,5.5,0,0,0-.266,1.731,6.855,6.855,0,0,0,.215,1.782A4.109,4.109,0,0,0-11.03.036a2.919,2.919,0,0,0,1.014.881A2.928,2.928,0,0,0-8.634,1.235Zm11.492.8a4.531,4.531,0,0,1-1.772-.348A4.108,4.108,0,0,1-.358.671,4.9,4.9,0,0,1-1.331-.947a6.1,6.1,0,0,1-.358-2.161A6.19,6.19,0,0,1-1.331-5.28,4.973,4.973,0,0,1-.368-6.909,4.3,4.3,0,0,1,1-7.933a3.714,3.714,0,0,1,1.588-.359A3.426,3.426,0,0,1,5.358-7.1a5.06,5.06,0,0,1,1,3.36v.369a1.7,1.7,0,0,1-.041.369H-.767A5.717,5.717,0,0,0-.481-1.3,4.049,4.049,0,0,0,.267.057,3.413,3.413,0,0,0,1.425.938a3.522,3.522,0,0,0,1.516.318A4.187,4.187,0,0,0,4.385,1.02a4.726,4.726,0,0,0,1.2-.645l.369.7a12.154,12.154,0,0,1-1.3.656A4.518,4.518,0,0,1,2.858,2.034ZM-.767-3.744H5.5a4.357,4.357,0,0,0-.778-2.837,2.6,2.6,0,0,0-2.11-.932A2.932,2.932,0,0,0,1.4-7.257,3.2,3.2,0,0,0,.37-6.509,4.027,4.027,0,0,0-.388-5.321,5.241,5.241,0,0,0-.767-3.744ZM11.4,2.034a5.046,5.046,0,0,1-2.028-.4A6.33,6.33,0,0,1,7.8.682L8.328.006A6.906,6.906,0,0,0,9.68.9a3.964,3.964,0,0,0,1.782.359A2.379,2.379,0,0,0,13.214.671,1.867,1.867,0,0,0,13.8-.691a1.489,1.489,0,0,0-.215-.8,2.026,2.026,0,0,0-.563-.594,4.382,4.382,0,0,0-.768-.43q-.42-.184-.85-.348-.553-.2-1.116-.43A4.934,4.934,0,0,1,9.27-3.836a2.644,2.644,0,0,1-.727-.758,1.984,1.984,0,0,1-.277-1.076,2.563,2.563,0,0,1,.2-1.014,2.306,2.306,0,0,1,.615-.84,3,3,0,0,1,.994-.563,4.113,4.113,0,0,1,1.362-.2A4.229,4.229,0,0,1,12.968-8a4.4,4.4,0,0,1,1.28.738l-.492.635a5.794,5.794,0,0,0-1.045-.625A3.1,3.1,0,0,0,11.4-7.513a2.805,2.805,0,0,0-.983.154,2.164,2.164,0,0,0-.686.4,1.532,1.532,0,0,0-.41.574,1.73,1.73,0,0,0-.133.656A1.3,1.3,0,0,0,9.383-5a1.9,1.9,0,0,0,.522.522,4.061,4.061,0,0,0,.748.4q.42.174.85.338l1.147.451a4.812,4.812,0,0,1,1.034.553,2.643,2.643,0,0,1,.748.809,2.307,2.307,0,0,1,.287,1.2A2.651,2.651,0,0,1,14.5.323a2.452,2.452,0,0,1-.645.881,3.257,3.257,0,0,1-1.045.6A4.093,4.093,0,0,1,11.4,2.034Zm5.92-.246V-8.046h.9V1.788Zm.471-12.21a.812.812,0,0,1-.584-.225.759.759,0,0,1-.236-.574.777.777,0,0,1,.236-.6.833.833,0,0,1,.584-.215.833.833,0,0,1,.584.215.777.777,0,0,1,.236.6.759.759,0,0,1-.236.574A.812.812,0,0,1,17.792-10.422ZM25.228,6.52a5.181,5.181,0,0,1-2.95-.738A2.289,2.289,0,0,1,21.192,3.8a2.343,2.343,0,0,1,.389-1.27,4.072,4.072,0,0,1,1.065-1.106V1.337a1.887,1.887,0,0,1-.615-.615,1.77,1.77,0,0,1-.246-.963,1.731,1.731,0,0,1,.369-1.117,3.422,3.422,0,0,1,.7-.686v-.082A3.943,3.943,0,0,1,22-3.231a3.29,3.29,0,0,1-.379-1.6,3.567,3.567,0,0,1,.266-1.393,3.3,3.3,0,0,1,.737-1.1,3.361,3.361,0,0,1,1.106-.717,3.581,3.581,0,0,1,1.352-.256,3.463,3.463,0,0,1,.737.072,2.79,2.79,0,0,1,.553.174h3.339v.758H27.42A3.193,3.193,0,0,1,28.2-6.233a3.269,3.269,0,0,1,.307,1.424,3.567,3.567,0,0,1-.266,1.393,3.379,3.379,0,0,1-.727,1.1,3.272,3.272,0,0,1-1.086.717,3.5,3.5,0,0,1-1.342.256,3.75,3.75,0,0,1-.85-.1,2.793,2.793,0,0,1-.789-.307,3.083,3.083,0,0,0-.563.594,1.368,1.368,0,0,0-.236.819,1.227,1.227,0,0,0,.389.912,2.179,2.179,0,0,0,1.5.379h2.11a4.375,4.375,0,0,1,2.448.543A1.93,1.93,0,0,1,29.878,3.2a2.57,2.57,0,0,1-.328,1.239,3.347,3.347,0,0,1-.932,1.065,4.83,4.83,0,0,1-1.465.738A6.274,6.274,0,0,1,25.228,6.52Zm-.143-8.584a2.476,2.476,0,0,0,.973-.195,2.371,2.371,0,0,0,.809-.563A2.76,2.76,0,0,0,27.42-3.7a3.008,3.008,0,0,0,.2-1.127,3.008,3.008,0,0,0-.2-1.127,2.609,2.609,0,0,0-.543-.86,2.378,2.378,0,0,0-.809-.543,2.551,2.551,0,0,0-.983-.195,2.528,2.528,0,0,0-.994.195,2.518,2.518,0,0,0-.809.543,2.546,2.546,0,0,0-.553.85,2.987,2.987,0,0,0-.2,1.137,3.008,3.008,0,0,0,.2,1.127,2.67,2.67,0,0,0,.563.881,2.478,2.478,0,0,0,.819.563A2.476,2.476,0,0,0,25.085-2.064Zm.246,7.846a4.914,4.914,0,0,0,1.5-.215A3.909,3.909,0,0,0,27.973,5a2.633,2.633,0,0,0,.727-.789,1.79,1.79,0,0,0,.256-.912,1.227,1.227,0,0,0-.584-1.157,3.422,3.422,0,0,0-1.69-.338h-2.11q-.164,0-.5-.031a4.457,4.457,0,0,1-.727-.133,3.242,3.242,0,0,0-.983,1,2.116,2.116,0,0,0-.307,1.065,1.736,1.736,0,0,0,.85,1.5A4.324,4.324,0,0,0,25.33,5.783Zm6.658-3.995V-8.046h.778l.082,1.516h.061a8.939,8.939,0,0,1,1.557-1.26,3.355,3.355,0,0,1,1.823-.5,2.677,2.677,0,0,1,2.253.922,4.622,4.622,0,0,1,.717,2.848v6.31h-.9V-4.4a4.109,4.109,0,0,0-.522-2.325,1.962,1.962,0,0,0-1.731-.748,2.893,2.893,0,0,0-1.6.461,9.747,9.747,0,0,0-1.618,1.383V1.788Zm14.626.246a4.531,4.531,0,0,1-1.772-.348A4.108,4.108,0,0,1,43.4.671a4.9,4.9,0,0,1-.973-1.618,6.105,6.105,0,0,1-.358-2.161,6.19,6.19,0,0,1,.358-2.172,4.973,4.973,0,0,1,.963-1.629A4.3,4.3,0,0,1,44.76-7.933a3.714,3.714,0,0,1,1.588-.359A3.426,3.426,0,0,1,49.113-7.1a5.06,5.06,0,0,1,1,3.36v.369a1.7,1.7,0,0,1-.041.369H42.988A5.717,5.717,0,0,0,43.275-1.3,4.049,4.049,0,0,0,44.023.057,3.414,3.414,0,0,0,45.18.938a3.522,3.522,0,0,0,1.516.318A4.187,4.187,0,0,0,48.14,1.02a4.726,4.726,0,0,0,1.2-.645l.369.7a12.155,12.155,0,0,1-1.3.656A4.518,4.518,0,0,1,46.614,2.034ZM42.988-3.744h6.268a4.357,4.357,0,0,0-.778-2.837,2.6,2.6,0,0,0-2.11-.932,2.932,2.932,0,0,0-1.209.256,3.2,3.2,0,0,0-1.034.748,4.027,4.027,0,0,0-.758,1.188A5.241,5.241,0,0,0,42.988-3.744ZM52.78,1.788V-8.046h.778l.082,1.823H53.7a4.8,4.8,0,0,1,1.2-1.5,2.455,2.455,0,0,1,1.588-.574A2.882,2.882,0,0,1,57-8.251a1.766,1.766,0,0,1,.471.164l-.2.819a2.005,2.005,0,0,0-.43-.133,2.957,2.957,0,0,0-.471-.031,2.3,2.3,0,0,0-1.383.563,4.7,4.7,0,0,0-1.3,1.956v6.7Z" transform="translate(91.226 14)"/>
  </g>
</svg>
